<svg xmlns="http://www.w3.org/2000/svg" viewBox="0 0 1920 1080"><g transform="
          rotate(0 960 540) 
          translate(-0 -0)
          scale(1)
        "><rect width="1920" height="1080" fill="rgb(48, 85, 130)"></rect><g transform="translate(0, 0)"><path fill="rgb(80, 109, 144)" fill-opacity="1" d="M0,264.707L16,262.556C32,260.405,64,256.103,96,255.436C128,254.769,160,257.737,192,258.071C224,258.405,256,256.104,288,227.387C320,198.67,352,143.537,384,138.881C416,134.225,448,180.045,480,166.002C512,151.959,544,78.052,576,73.86C608,69.669,640,135.193,672,151.514C704,167.835,736,134.953,768,104.517C800,74.081,832,46.091,864,60.539C896,74.987,928,131.872,960,142.129C992,152.386,1024,116.015,1056,97.811C1088,79.606,1120,79.568,1152,105.956C1184,132.344,1216,185.158,1248,213.523C1280,241.888,1312,245.804,1344,213.506C1376,181.208,1408,112.697,1440,84.467C1472,56.237,1504,68.289,1536,94.704C1568,121.12,1600,161.899,1632,190.747C1664,219.596,1696,236.513,1728,225.386C1760,214.259,1792,175.089,1824,135.235C1856,95.38,1888,54.842,1904,34.573L1920,14.304L1920,1080L1904,1080C1888,1080,1856,1080,1824,1080C1792,1080,1760,1080,1728,1080C1696,1080,1664,1080,1632,1080C1600,1080,1568,1080,1536,1080C1504,1080,1472,1080,1440,1080C1408,1080,1376,1080,1344,1080C1312,1080,1280,1080,1248,1080C1216,1080,1184,1080,1152,1080C1120,1080,1088,1080,1056,1080C1024,1080,992,1080,960,1080C928,1080,896,1080,864,1080C832,1080,800,1080,768,1080C736,1080,704,1080,672,1080C640,1080,608,1080,576,1080C544,1080,512,1080,480,1080C448,1080,416,1080,384,1080C352,1080,320,1080,288,1080C256,1080,224,1080,192,1080C160,1080,128,1080,96,1080C64,1080,32,1080,16,1080L0,1080Z"></path></g><g transform="translate(0, 270)"><path fill="rgb(112, 134, 158)" fill-opacity="1" d="M0,2.007L16,28.76C32,55.513,64,109.018,96,125.837C128,142.655,160,122.785,192,102.133C224,81.481,256,60.047,288,54.191C320,48.336,352,58.059,384,64.956C416,71.853,448,75.924,480,99.792C512,123.66,544,167.326,576,197.063C608,226.799,640,242.607,672,252.089C704,261.571,736,264.727,768,246.468C800,228.209,832,188.536,864,156.971C896,125.406,928,101.95,960,81.477C992,61.005,1024,43.517,1056,69.355C1088,95.193,1120,164.359,1152,204.125C1184,243.892,1216,254.26,1248,259.811C1280,265.363,1312,266.098,1344,250.711C1376,235.324,1408,203.814,1440,184.138C1472,164.461,1504,156.619,1536,140.594C1568,124.569,1600,100.363,1632,119.482C1664,138.602,1696,201.049,1728,227.091C1760,253.132,1792,242.768,1824,239.822C1856,236.876,1888,241.347,1904,243.583L1920,245.818L1920,810L1904,810C1888,810,1856,810,1824,810C1792,810,1760,810,1728,810C1696,810,1664,810,1632,810C1600,810,1568,810,1536,810C1504,810,1472,810,1440,810C1408,810,1376,810,1344,810C1312,810,1280,810,1248,810C1216,810,1184,810,1152,810C1120,810,1088,810,1056,810C1024,810,992,810,960,810C928,810,896,810,864,810C832,810,800,810,768,810C736,810,704,810,672,810C640,810,608,810,576,810C544,810,512,810,480,810C448,810,416,810,384,810C352,810,320,810,288,810C256,810,224,810,192,810C160,810,128,810,96,810C64,810,32,810,16,810L0,810Z"></path></g><g transform="translate(0, 540)"><path fill="rgb(143, 158, 172)" fill-opacity="1" d="M0,201.282L16,171.669C32,142.057,64,82.831,96,89.924C128,97.016,160,170.425,192,187.104C224,203.782,256,163.73,288,129.672C320,95.615,352,67.551,384,66.973C416,66.395,448,93.301,480,130.795C512,168.289,544,216.371,576,219.254C608,222.138,640,179.824,672,154.89C704,129.955,736,122.4,768,102.323C800,82.245,832,49.645,864,32.959C896,16.273,928,15.5,960,30.178C992,44.856,1024,74.985,1056,115.818C1088,156.651,1120,208.188,1152,225.663C1184,243.138,1216,226.552,1248,189.413C1280,152.273,1312,94.582,1344,101.681C1376,108.779,1408,180.667,1440,191.897C1472,203.126,1504,153.697,1536,142.112C1568,130.528,1600,156.788,1632,158.406C1664,160.024,1696,136.999,1728,139.703C1760,142.408,1792,170.841,1824,184.672C1856,198.504,1888,197.732,1904,197.346L1920,196.961L1920,540L1904,540C1888,540,1856,540,1824,540C1792,540,1760,540,1728,540C1696,540,1664,540,1632,540C1600,540,1568,540,1536,540C1504,540,1472,540,1440,540C1408,540,1376,540,1344,540C1312,540,1280,540,1248,540C1216,540,1184,540,1152,540C1120,540,1088,540,1056,540C1024,540,992,540,960,540C928,540,896,540,864,540C832,540,800,540,768,540C736,540,704,540,672,540C640,540,608,540,576,540C544,540,512,540,480,540C448,540,416,540,384,540C352,540,320,540,288,540C256,540,224,540,192,540C160,540,128,540,96,540C64,540,32,540,16,540L0,540Z"></path></g><g transform="translate(0, 810)"><path fill="rgb(175, 182, 186)" fill-opacity="1" d="M0,119.679L16,125.126C32,130.573,64,141.467,96,146.791C128,152.116,160,151.873,192,149.223C224,146.574,256,141.518,288,137.082C320,132.647,352,128.83,384,110.669C416,92.509,448,60.004,480,40.594C512,21.184,544,14.868,576,23.887C608,32.905,640,57.257,672,72.566C704,87.875,736,94.141,768,95.561C800,96.981,832,93.555,864,101.558C896,109.562,928,128.995,960,142.998C992,157.001,1024,165.574,1056,178.996C1088,192.417,1120,210.687,1152,207.567C1184,204.447,1216,179.938,1248,154.594C1280,129.25,1312,103.072,1344,103.725C1376,104.377,1408,131.861,1440,127.495C1472,123.129,1504,86.915,1536,96.743C1568,106.572,1600,162.444,1632,173.411C1664,184.378,1696,150.441,1728,158.001C1760,165.562,1792,214.621,1824,235.298C1856,255.974,1888,248.268,1904,244.414L1920,240.561L1920,270L1904,270C1888,270,1856,270,1824,270C1792,270,1760,270,1728,270C1696,270,1664,270,1632,270C1600,270,1568,270,1536,270C1504,270,1472,270,1440,270C1408,270,1376,270,1344,270C1312,270,1280,270,1248,270C1216,270,1184,270,1152,270C1120,270,1088,270,1056,270C1024,270,992,270,960,270C928,270,896,270,864,270C832,270,800,270,768,270C736,270,704,270,672,270C640,270,608,270,576,270C544,270,512,270,480,270C448,270,416,270,384,270C352,270,320,270,288,270C256,270,224,270,192,270C160,270,128,270,96,270C64,270,32,270,16,270L0,270Z"></path></g></g></svg>