<?xml version="1.0" encoding="utf-8"?>
<!-- Generator: Adobe Illustrator 27.5.0, SVG Export Plug-In . SVG Version: 6.00 Build 0)  -->
<svg version="1.1" xmlns="http://www.w3.org/2000/svg" xmlns:xlink="http://www.w3.org/1999/xlink" x="0px" y="0px"
	 viewBox="0 0 500 500" style="enable-background:new 0 0 500 500;" xml:space="preserve">
<g id="BACKGROUND">
	<rect style="fill:#DDEBF2;" width="500" height="500"/>
</g>
<g id="OBJECTS">
	<path style="opacity:0.1;fill:#070A0A;" d="M397.244,429.242c0-4.387-94.648-10.827-175.969-10.827
		c-81.32,0-118.519,6.441-118.519,10.827c0,4.387,100.81,16.42,182.131,16.42S397.244,433.628,397.244,429.242z"/>
	<g>
		<g>
			<g>
				<polygon style="fill:#FF9272;" points="215.344,362.473 224.494,404.892 216.959,404.246 202.149,361.871 				"/>
			</g>
			<path style="fill:#8A7873;" d="M213.322,403.883l-3.358,9.78c0,0-22.851-0.118-26.533,1.382
				c-3.847,1.567-2.778,5.129-2.778,5.129h46.978c0,0,1.81-4.49-3.137-15.281L213.322,403.883z"/>
			<rect x="180.653" y="420.173" style="fill:#F3F9F7;" width="46.978" height="3.205"/>
		</g>
		<g>
			<g>
				<polygon style="fill:#FF9272;" points="282.732,377.005 291.882,419.423 284.346,418.778 269.537,376.402 				"/>
			</g>
			<path style="fill:#8A7873;" d="M280.709,418.414l-3.358,9.78c0,0-22.851-0.118-26.533,1.382
				c-3.847,1.567-2.778,5.129-2.778,5.129h46.978c0,0,1.81-4.49-3.137-15.281L280.709,418.414z"/>
			<rect x="248.041" y="434.704" style="fill:#F3F9F7;" width="46.978" height="3.205"/>
		</g>
		<path style="fill:#4D3F3C;" d="M217.766,135.111c0,0-2.011,35.868-8.129,46.063c0,0-2.984-2.627-4.978-1.202
			c-1.994,1.425-2.849,6.049-2.279,9.863c0.57,3.814,9.688,15.619,14.247,14.845c4.559-0.774,8.073-8.182,10.305-19.579
			C229.163,173.702,224.604,149.643,217.766,135.111z"/>
		<path style="fill:#4D3F3C;" d="M235.087,117.161c0,0-21.097,4.736-21.239,8.245c-0.088,2.169,1.546,5.841,1.546,5.841
			s-4.538,1.282-3.786,3.027c0.562,1.305,6.738,13.855,10.224,37.149c3.403,22.744,2.668,64.232-8.906,79.903
			c-0.626,0.847-0.811,1.941-0.516,2.952c1.234,4.24,6.926,14.532,33.161,18.227C245.57,272.504,252.99,148.162,235.087,117.161z"/>
		<path style="fill:#211B1A;" d="M312.507,284.417c0,0,1.282,12.663-27.354,10.098v-39.631
			C285.154,254.884,312.507,261.497,312.507,284.417z"/>
		<g>
			<path style="fill:#485C69;" d="M305.523,279.984c-11.106,16.681-26.761,59.41-26.761,59.41
				c3.987,13.678,4.365,36.906,4.365,36.906s3.609,4.7,3.749,7.541c0.14,2.852-0.713,5.683-0.713,5.683
				c4.343-1.188,2.852,10.329,2.852,10.329s0.508,4.408-3.857,5.294c-6.633,1.35-8.989-2.723-8.989-2.723
				s-19.069-51.632-18.28-60.75c0.778-9.118,3.371-57.26,3.371-57.26s0,0-0.011,0.011c-29.376,14.24-62.414,25.27-62.414,25.27
				s0,0,0.011,0.011l16.962,48.315c0,0,3.943,2.939,4.43,6.353c0.497,3.425-0.681,16.476-0.681,16.476s3.9,0.421,4.635,4.051
				c0.356,1.739-1.912,6.353-1.912,6.353s-3.803,3.057-6.363,2.852c-2.571-0.216-6.18-2.852-6.18-2.852
				s-37.608-79.851-33.114-93.453c3.9-11.819,55.002-48.92,55.002-48.92l1.178-11.16l65.407-2.615
				C298.209,235.105,312.383,269.688,305.523,279.984z"/>
			<path style="fill:none;stroke:#2C1817;stroke-width:0.75;stroke-miterlimit:10;" d="M283.57,235.692
				c0,0,4.575,24.631,6.285,30.329c1.71,5.699,17.544,8.278,17.544,8.278"/>
			<path style="fill:none;stroke:#2C1817;stroke-width:0.75;stroke-miterlimit:10;" d="M261.256,284.417
				c0,0,1.485-34.97,1.899-47.911"/>
			<polyline style="fill:none;stroke:#2C1817;stroke-width:0.75;stroke-miterlimit:10;" points="257.158,237.029 256.09,262.246 
				269.27,264.597 			"/>
			<path style="fill:none;stroke:#2C1817;stroke-width:0.75;stroke-miterlimit:10;" d="M261.256,276.137
				c0,0-48.641,20.441-64.404,27.134c-2.267,0.962-3.394,3.509-2.585,5.835c4.237,12.178,16.455,47.338,17.256,50.161
				c0,0,4.176,3.633,4.39,5.129c0.214,1.496,0.427,18.378,0.427,18.378s3.943,1.221,3.858,2.778
				c-0.139,2.551-0.875,7.602-0.875,7.602"/>
			<path style="fill:none;stroke:#2C1817;stroke-width:0.75;stroke-miterlimit:10;" d="M302.098,273.129
				c0,0-26.988,59.212-28.698,62.203c-1.71,2.992,5.77,42.099,6.197,43.809s4.099,3.633,3.973,4.915
				c-0.126,1.282-1.166,7.197-1.166,7.197s3.818,1.137,3.604,2.206c-0.214,1.068,0.655,11.157,0.655,11.157"/>
		</g>
		<path style="fill:none;stroke:#2C1817;stroke-width:0.75;stroke-miterlimit:10;" d="M219.662,155.395
			c0,0,4.738,21.921,3.942,41.359"/>
		<g>
			<path style="fill:#A2931E;" d="M265.397,122.655c7.803,3.679,13.014,10.177,17.634,20.561
				c4.878,10.964,19.863,96.208,19.863,96.208s-29.045,15.72-36.998,16.288c-7.954,0.568-36.288-12.643-36.045-14.479
				c0.661-5,3.965-13.17,3.965-13.17c0.474-36.966-2.785-64.548-6.313-76.302c-2.52-8.395,7.917-27.161,7.917-27.161
				S261.569,120.851,265.397,122.655z"/>
		</g>
		<path style="fill:none;stroke:#2C1817;stroke-width:0.75;stroke-miterlimit:10;" d="M230.909,236.507
			c0,0,25.067,14.376,33.06,13.723c7.993-0.653,37.8-17.126,37.8-17.126"/>
		<path style="opacity:0.5;fill:#8C7F1A;" d="M236.689,227.11c0,0,20.075,6.287,26.332,8.072c6.257,1.785,26.6,3.54,26.6,3.54
			s-20.398,6.316-28.782,3.773C252.455,239.952,236.689,227.11,236.689,227.11z"/>
		<path style="fill:none;stroke:#2C1817;stroke-width:0.75;stroke-miterlimit:10;" d="M235.243,196.753
			c10.797,10.353,24.334,17.823,38.849,21.439"/>
		<path style="fill:none;stroke:#2C1817;stroke-width:0.75;stroke-miterlimit:10;" d="M240.557,215.116
			c6.367,3.494,13.218,6.104,20.296,7.732"/>
		<path style="fill:#FFEBB6;" d="M245.473,119.894c-4.032,0-12.008,0.732-12.451,6.226c-0.442,5.494,3.273,14.318,11.468,14.104
			c8.195-0.214,13.037-7.48,13.394-12.181C258.242,123.342,260.103,119.894,245.473,119.894z"/>
		<g>
			<path style="fill:#7D2E1A;" d="M255.614,58.313c-0.833-2.885-7.021-2.778-7.65-0.852c-6.618-4.268-14.633-3.678-22.079-1.115
				c-14.807,5.096-16.604,0.167-19.213,3.291c-0.631,0.755-0.066,2.834,0.901,5.176c-1.349-0.353-4.218-1.635-5.071-0.605
				c-1.292,1.56-7.017,19.521,13.438,23.011c5.136,0.919,18.818,0.371,29.972-9.185c-0.404,7.511-4.38,34.101,6.069,33.414
				c6.945-0.456,7.907-2.348,5.665-29.917C257.196,75.999,256.209,60.372,255.614,58.313z"/>
			<path style="fill:#FF9272;" d="M254.672,123.655l-3.02-24.3l-17.362,2.246l1.13,23.001c0,0,0.62,10.965,10.165,10.495
				C255.523,134.608,254.672,123.655,254.672,123.655z"/>
			<path style="fill:#F28A6B;" d="M248.663,109.099c0,0,4.079,13.928-13.379,12.724l-0.502-11.864L248.663,109.099z"/>
			<path style="fill:#FF9272;" d="M214.646,78.088c0,0,3.322,23.425,4.328,30.523c0.654,4.614,4.609,10.57,17.187,8.786
				c15.627-2.216,17.727-14.824,16.368-24.406c-1.359-9.583-2.818-19.875-2.818-19.875L214.646,78.088z"/>
			<g>
				<path style="fill:#FF9272;" d="M248.597,95.303c0.103,2.584,2.264,4.479,4.828,4.232c2.563-0.247,4.558-2.542,4.456-5.125
					c-0.103-2.584-2.264-4.479-4.828-4.232C250.489,90.424,248.494,92.718,248.597,95.303z"/>
			</g>
			<path style="fill:none;stroke:#2C1817;stroke-width:0.25;stroke-miterlimit:10;" d="M254,97.515
				c1.923-0.628,2.491-2.08,2.048-3.214c-0.444-1.134-1.594-1.903-2.762-1.846"/>
			<path style="fill:#7D2E1A;" d="M212.381,79.994c0.541,6.517,14.063,5.791,21.222,3.792c0.803-0.224,1.654-0.533,2.114-1.228
				c0.459-0.695,0.232-1.866-0.582-2.042c2.972,1.027,6.226,0.396,9.048-0.991c0.698-0.343,1.419-0.779,1.73-1.492
				c0.157,4.611,0.479,17.62,4.42,17.061c3.262-0.463,2.525-9.819,2.207-16.271c-0.151-3.064-0.846-6.359-3.12-8.417
				c-1.132-1.024-2.582-1.635-4.057-2.03c-3.718-0.994-7.649-0.706-11.475-0.28c-3.275,0.365-6.543,0.826-9.756,1.554
				c-2.87,0.65-5.764,1.549-8.085,3.358C213.726,74.818,212.048,77.071,212.381,79.994z"/>
			<path style="fill:#7D2E1A;" d="M233.645,86.507c0.179,0.961,4.336,0.979,6.711,0.528c2.376-0.451,3.048-1.385,2.869-2.347
				c-0.18-0.961-3.228-1.189-5.604-0.738C235.246,84.401,233.465,85.546,233.645,86.507z"/>
			<path style="fill:#7D2E1A;" d="M224.2,88.324c0.18,0.961-3.686,2.502-6.062,2.953c-2.376,0.451-3.339-0.173-3.518-1.134
				c-0.179-0.961,2.579-2.292,4.954-2.742C221.95,86.949,224.02,87.362,224.2,88.324z"/>
			<path style="fill:none;stroke:#2C1817;stroke-width:0.25;stroke-miterlimit:10;" d="M232.974,103.336c0,0-3.983-0.14-4.326-2.458
				c-0.404-2.733,3.5-2.071,3.5-2.071s0.038-3.46-0.622-5.725"/>
			<path style="fill:none;stroke:#2C1817;stroke-width:0.25;stroke-miterlimit:10;" d="M229.228,110.643
				c2.88,1.77,7.173,0.487,8.609-2.573"/>
		</g>
		<path style="fill:#564744;" d="M254.3,120.663c0,0,2.894,3.923-1.015,11.973c-1.939,3.994-2.859,5.343,0.464,8.548
			c0,0-2.442,1.603,0.122,6.839c2.066,4.218,18.032,39.192,21.452,52.239c2.436,9.297,3.137,33.078,3.338,45.982
			c0.081,5.18,2.896,9.935,7.423,12.456c9.842,5.482,26.126,15.999,26.424,25.718c0,0,1.71-38.564,0-50.135
			c-1.71-11.571-14.195-42.794-20.943-64.11c-8.533-26.956-12.395-45.106-14.532-50.278c0,0-12.878-2.662-23.513-5.516
			L254.3,120.663z"/>
		<path style="fill:none;stroke:#2C1817;stroke-width:0.75;stroke-miterlimit:10;" d="M286.189,235.669
			c1.943,2.463,4.751,4.064,7.5,5.576c5.595,3.078,11.251,6.042,16.966,8.892"/>
		<path style="fill:none;stroke:#2C1817;stroke-width:0.75;stroke-miterlimit:10;" d="M298.6,236.37
			c-0.059,0.324,0.312,0.543,0.62,0.659c2.709,1.02,5.418,2.039,8.128,3.059"/>
		<path style="fill:#564744;" d="M277.033,119.894c0,0,15.956,3.467,18.521,11.491c2.564,8.024,19.138,53.394,19.138,53.394
			s6.934,1.385,8.643,4.344c1.71,2.959-2.137,14.454-6.411,17.041c-4.274,2.587-15.82-2.583-15.82-2.583
			S272.759,169.661,277.033,119.894z"/>
		<path style="fill:none;stroke:#2C1817;stroke-width:0.75;stroke-miterlimit:10;" d="M309.516,185.313
			c-7.323-0.02-10.681,2.137-10.681,2.137s1.705-3.669,6.193-5.574"/>
		<path style="fill:none;stroke:#2C1817;stroke-width:0.75;stroke-miterlimit:10;" d="M280.879,128.345
			c-0.999,4.212-1.053,10.35-0.997,15.319c0.029,2.58,0.06,5.178,0.572,7.707c0.371,1.835,0.991,3.609,1.618,5.373
			c5.871,16.509,13.897,31.941,21.377,47.786"/>
		<path style="fill:#2C1817;" d="M235.047,95.451c0,0,1.267-3.798,3.728-4.137c2.461-0.34,3.154,4.793,3.154,4.793
			S238.555,91.571,235.047,95.451z"/>
		<path style="fill:#2C1817;" d="M226.235,96.095c0,0-2.157-3.372-4.627-3.1c-2.469,0.273-1.886,5.419-1.886,5.419
			S221.885,93.192,226.235,96.095z"/>
		<path style="fill:none;stroke:#FFFFFF;stroke-width:0.5;stroke-linecap:round;stroke-miterlimit:10;" d="M253.624,97.057
			c4.527,5.516,5.199,13.237,4.668,20.353c-0.532,7.116-2.064,14.246-1.177,21.327c1.328,10.603,8.009,20.521,6.681,31.124
			c-0.842,6.721-6.169,13.271-12.16,16.43c-2.531-10.812-6.882-21.196-12.813-30.583c-3.017-4.775-6.092-9.504-8.855-14.431
			c-6.29-11.215-5.16-22.425-4.464-24.607"/>
		<path style="fill:#FF9272;" d="M263.306,178.034c0,0-4.602-5.139-7.159-6.872c-2.557-1.733-4.169-0.96-7.658-2.235
			c-3.489-1.276-2.31,3.41-2.31,3.41s-1.798,1.736-0.595,3.173c0,0-1.383,2.5,0.185,3.399c0,0-1.11,0.949,0.238,2.173
			c1.347,1.224,3.083,3.022,4.327,3.71c1.244,0.688,9.955,0.682,9.955,0.682s47.379,21.252,53.93,17.842
			c8.539-4.444-0.356-13.532-0.356-13.532S270.143,180.335,263.306,178.034z"/>
		<g>
			<path style="fill:#F28A6B;" d="M193.872,121.378c0.922-0.948,2.114-1.631,3.398-1.947c0.501-0.123,1.142-0.138,1.412,0.302
				c0.262,0.426-0.012,0.971-0.294,1.384c-0.941,1.382-2.04,2.692-2.614,4.262c-0.201,0.551-0.455,1.078-0.637,1.636
				c-1.162,3.565-3.964,4.342-7.596,3.904C188.083,127.173,191.234,124.091,193.872,121.378z"/>
			<path style="fill:#FF9272;" d="M214.855,200.013c-4.31-10.327-25.71-54.344-26.854-70.06c0.623,0.228,1.227,0.355,1.779,0.187
				c0.244-0.075,0.497-0.178,0.647-0.384c0.28-0.383,0.459-1.132,0.263-1.564c0.427,0.402,1.115,0.495,1.633,0.22
				c0.518-0.275,1.186-1.117,1.092-1.696c0.8,0.325,1.828-0.207,2.025-1.048c0.079-0.336,0.04-0.687-0.005-1.029
				c-0.221-1.689-0.576-3.532-1.056-5.249c-0.264-0.945-1.082-1.634-2.058-1.732c-2.029-0.204-4.061-0.385-6.095-0.543
				c-0.657-0.051-1.349-0.094-1.942,0.192c-0.234,0.113-0.437,0.269-0.615,0.453c-3.698,3.813-5.378,9.189-5.318,14.501
				c0.181,16.111,12.349,53.047,17.487,68.317C201.569,214.038,211.131,209.479,214.855,200.013z"/>
			<path style="fill:#FF9272;" d="M187.451,129.564c0.627,0.583,1.493,0.829,2.313,0.58l0.017-0.005
				c0.244-0.075,0.497-0.178,0.647-0.384c0.28-0.383,0.459-1.132,0.263-1.564c0.427,0.402,1.115,0.495,1.633,0.22
				c0.518-0.275,1.186-1.117,1.092-1.696c0.8,0.325,1.828-0.207,2.025-1.048c0.079-0.336,0.04-0.687-0.005-1.029
				c-0.226-1.724-0.591-3.607-1.085-5.354c-0.249-0.881-1.009-1.524-1.92-1.616c-2.066-0.208-4.133-0.393-6.203-0.554
				c-0.657-0.051-1.349-0.094-1.942,0.192c-0.745,0.359-1.165,1.151-1.52,1.898c-2.419,5.088-4.526,11.607-4.308,17.237
				c0.237-1.673,0.689-3.175,1.439-4.69c0.547-1.105,1.25-2.174,2.266-2.872c1.086-0.746,2.989-0.711,4.15-0.089
				C186.727,129.011,187.119,129.256,187.451,129.564z"/>
		</g>
		<path style="fill:none;stroke:#FFFFFF;stroke-width:0.5;stroke-linecap:round;stroke-miterlimit:10;" d="M251.636,186.292
			c3.055,58.004-27.815,91.341-6.881,99.068c13.473,4.973,20.309-21.072,28.392-19.337c5.311,1.14,1.663,23.202,10.424,23.365
			c6.285,0.117,11.915-6.518,11.915-20.836"/>
	</g>
	<g>
		<path style="fill:#1F1F1F;" d="M168.366,116.548c0.857,1.103,0.307,2.963-1.228,4.155c-1.535,1.192-3.473,1.265-4.329,0.162
			c-0.856-1.102-0.307-2.963,1.228-4.155C165.571,115.518,167.51,115.446,168.366,116.548z"/>
		
			<rect x="164.987" y="101.669" transform="matrix(0.9328 -0.3603 0.3603 0.9328 -28.4163 66.9527)" style="fill:#1F1F1F;" width="0.788" height="16.058"/>
		<path style="fill:#1F1F1F;" d="M164.868,101.868c-0.999-0.193-2.012,0.069-2.748,0.482l0.669,1.733
			c2.69-0.938,5.182,1.383,6.27,1.439c1.087,0.055,2.38-0.388,2.717-1.423C169.084,105.165,166.723,102.226,164.868,101.868z"/>
	</g>
	<g>
		<path style="fill:#1F1F1F;" d="M188.021,100.068c0.579,1.437-0.572,3.255-2.572,4.061c-2,0.806-4.09,0.295-4.669-1.141
			c-0.579-1.437,0.572-3.255,2.572-4.061C185.351,98.12,187.441,98.631,188.021,100.068z"/>
		
			<rect x="186.477" y="82.944" transform="matrix(0.9958 -0.0912 0.0912 0.9958 -7.5977 17.4286)" style="fill:#1F1F1F;" width="0.874" height="17.816"/>
		<path style="fill:#1F1F1F;" d="M188.745,83.341c-1.008-0.509-2.168-0.538-3.079-0.319l0.188,2.052
			c3.155-0.184,5.11,3.049,6.253,3.438c1.143,0.389,2.658,0.309,3.331-0.694C192.242,88.139,190.616,84.286,188.745,83.341z"/>
	</g>
	<g>
		<g>
			<path style="fill:#1F1F1F;" d="M157.644,77.924c-0.01,1.527-1.741,2.754-3.867,2.74c-2.126-0.014-3.841-1.263-3.831-2.79
				c0.01-1.527,1.742-2.754,3.868-2.74C155.939,75.147,157.654,76.396,157.644,77.924z"/>
			
				<rect x="159.283" y="61.231" transform="matrix(0.9558 0.294 -0.294 0.9558 27.6386 -43.8565)" style="fill:#1F1F1F;" width="0.862" height="17.568"/>
		</g>
		<g>
			<path style="fill:#1F1F1F;" d="M170.894,81.999c-0.01,1.527-1.741,2.754-3.867,2.74c-2.126-0.014-3.841-1.263-3.831-2.79
				c0.01-1.527,1.742-2.754,3.867-2.74C169.189,79.222,170.904,80.471,170.894,81.999z"/>
			
				<rect x="172.533" y="65.306" transform="matrix(0.9558 0.294 -0.294 0.9558 29.4219 -47.5714)" style="fill:#1F1F1F;" width="0.862" height="17.568"/>
		</g>
		
			<rect x="166.755" y="57.894" transform="matrix(0.294 -0.9558 0.9558 0.294 56.5452 207.0612)" style="fill:#1F1F1F;" width="3.347" height="14.724"/>
		
			<rect x="165.157" y="63.091" transform="matrix(0.294 -0.9558 0.9558 0.294 50.4493 209.2029)" style="fill:#1F1F1F;" width="3.347" height="14.724"/>
	</g>
</g>
<g id="DESIGNED_BY_FREEPIK">
	<g>
		<g id="XMLID_319_">
			<g id="XMLID_338_">
				<path id="XMLID_346_" style="fill:#1C1C1B;" d="M261.442,464.892c-0.49,0.502-0.91,1.054-1.255,1.646l-0.527-0.273
					c-0.076-0.337-0.396-0.569-0.746-0.528c-0.375,0.044-0.643,0.384-0.599,0.759c0.044,0.375,0.384,0.643,0.758,0.599
					c0.074-0.009,0.144-0.029,0.208-0.059l0.511,0.265c-0.284,0.627-0.49,1.289-0.611,1.975l0.845,0.149
					c0.26-1.479,0.962-2.839,2.029-3.932L261.442,464.892z"/>
				<path id="XMLID_345_" style="fill:#1C1C1B;" d="M267.656,462.285c-0.194,0-0.386,0.007-0.577,0.019l-0.083-0.709
					c0.212-0.169,0.335-0.44,0.301-0.73c-0.052-0.445-0.456-0.763-0.901-0.711c-0.445,0.052-0.763,0.455-0.711,0.901
					c0.034,0.288,0.214,0.522,0.458,0.638l0.083,0.707c-0.808,0.132-1.589,0.376-2.332,0.732l0.37,0.774
					c1.058-0.506,2.199-0.762,3.392-0.762c0.562,0,1.124,0.06,1.67,0.178l0.182-0.839
					C268.903,462.352,268.279,462.285,267.656,462.285z"/>
				<path id="XMLID_344_" style="fill:#1C1C1B;" d="M275.133,465.17c0.375-0.046,0.641-0.387,0.595-0.761
					c-0.046-0.375-0.387-0.641-0.761-0.595c-0.35,0.043-0.606,0.344-0.6,0.689l-0.471,0.411c-0.473-0.487-1.007-0.92-1.594-1.29
					l-0.458,0.726c1.284,0.809,2.288,1.955,2.903,3.313l0.782-0.354c-0.284-0.627-0.643-1.214-1.067-1.75l0.455-0.397
					C274.986,465.175,275.059,465.179,275.133,465.17z"/>
				<path id="XMLID_343_" style="fill:#1C1C1B;" d="M267.036,473.845c-0.437,0.026-0.878,0.039-1.31,0.039
					c-0.997,0-1.962-0.069-2.807-0.203c-0.442-0.07-0.958-0.176-1.438-0.331c1.185,2.107,3.476,3.539,6.102,3.539
					c3.233,0,5.959-2.17,6.737-5.1c-0.772,0.509-1.705,0.935-2.784,1.271C270.201,473.478,268.643,473.749,267.036,473.845z"/>
				<path id="XMLID_339_" style="fill:#1C1C1B;" d="M267.656,464.002c-3.796,0-6.884,3.019-6.884,6.73
					c0,0.482,0.052,0.962,0.155,1.428c0.763,0.547,3.064,1.008,6.055,0.828c3.261-0.196,5.998-1.084,7.556-2.444
					c-0.006-0.221-0.023-0.442-0.051-0.659C274.056,466.531,271.12,464.002,267.656,464.002z M265.211,471.38
					c-1.155,0-2.095-0.94-2.095-2.095c0-1.155,0.94-2.095,2.095-2.095c1.155,0,2.095,0.94,2.095,2.095
					C267.306,470.44,266.366,471.38,265.211,471.38z M270.576,470.351c-0.849,0-1.54-0.691-1.54-1.54
					c0-0.849,0.691-1.541,1.54-1.541c0.849,0,1.541,0.691,1.541,1.541C272.116,469.66,271.425,470.351,270.576,470.351z"/>
			</g>
			<path id="XMLID_336_" style="fill:#1C1C1B;" d="M285.779,466.116c-0.334-0.131-0.912-0.35-1.565-0.269
				c-0.624,0.078-0.956,0.386-0.956,1.14v0.981h2.523v1.945h-2.523v6.177h-2.188v-6.177h-1.517v-1.945h1.517v-1.006
				c0-1.902,1.014-3.151,2.908-3.151c0.728,0,1.31,0.138,1.8,0.349L285.779,466.116z"/>
			<path id="XMLID_334_" style="fill:#1C1C1B;" d="M291.104,469.89c-0.2-0.034-0.405-0.052-0.596-0.052
				c-1.014,0-1.71,0.62-1.71,1.827v4.425h-2.188v-8.122h2.12v0.888c0.511-0.763,1.291-1.106,2.288-1.106
				c0.469,0,0.96,0.144,1.239,0.381L291.104,469.89z"/>
			<path id="XMLID_331_" style="fill:#1C1C1B;" d="M299.786,472.017c0,0.251-0.017,0.553-0.042,0.738h-5.758
				c0.235,1.173,1.056,1.685,2.087,1.685c0.704,0,1.467-0.285,2.053-0.779l1.282,1.408c-0.922,0.846-2.095,1.232-3.461,1.232
				c-2.489,0-4.216-1.693-4.216-4.249c0-2.556,1.676-4.3,4.107-4.3C298.177,467.75,299.778,469.485,299.786,472.017z
				 M293.995,471.262h3.595c-0.201-1.039-0.83-1.626-1.768-1.626C294.791,469.636,294.187,470.257,293.995,471.262z"/>
			<path id="XMLID_328_" style="fill:#1C1C1B;" d="M308.453,472.017c0,0.251-0.017,0.553-0.042,0.738h-5.758
				c0.235,1.173,1.056,1.685,2.087,1.685c0.704,0,1.467-0.285,2.053-0.779l1.282,1.408c-0.922,0.846-2.095,1.232-3.461,1.232
				c-2.489,0-4.216-1.693-4.216-4.249c0-2.556,1.676-4.3,4.107-4.3C306.843,467.75,308.444,469.485,308.453,472.017z
				 M302.661,471.262h3.596c-0.201-1.039-0.83-1.626-1.768-1.626C303.457,469.636,302.854,470.257,302.661,471.262z"/>
			<path id="XMLID_325_" style="fill:#1C1C1B;" d="M317.903,472.025c0,2.439-1.693,4.275-3.931,4.275
				c-1.09,0-1.861-0.428-2.389-1.056v4.199h-2.179v-11.474h2.137v0.897c0.528-0.662,1.307-1.115,2.422-1.115
				C316.21,467.75,317.903,469.586,317.903,472.025z M311.475,472.025c0,1.282,0.846,2.238,2.087,2.238
				c1.291,0,2.095-0.997,2.095-2.238c0-1.24-0.805-2.238-2.095-2.238C312.321,469.787,311.475,470.742,311.475,472.025z"/>
			<path id="XMLID_322_" style="fill:#1C1C1B;" d="M321.418,465.311c0,0.788-0.612,1.391-1.4,1.391
				c-0.788,0-1.391-0.603-1.391-1.391c0-0.788,0.604-1.408,1.391-1.408C320.806,463.903,321.418,464.524,321.418,465.311z
				 M321.124,476.09h-2.188v-8.122h2.188V476.09z"/>
			<path id="XMLID_320_" style="fill:#1C1C1B;" d="M324.775,470.86l3.059-2.892h2.682l-3.939,3.822l3.964,4.3h-2.69l-3.076-3.285
				v3.285h-2.188v-12.069h2.188V470.86z"/>
		</g>
		<g>
			<path style="fill:#1C1C1B;" d="M175.729,476.016v-1.194c-0.597,0.813-1.576,1.393-2.704,1.393c-2.09,0-3.566-1.592-3.566-4.196
				c0-2.555,1.46-4.213,3.566-4.213c1.078,0,2.057,0.531,2.704,1.41v-4.263h1.244v11.064H175.729z M175.729,473.843v-3.633
				c-0.448-0.697-1.41-1.294-2.405-1.294c-1.609,0-2.571,1.327-2.571,3.102c0,1.775,0.962,3.085,2.571,3.085
				C174.319,475.104,175.281,474.54,175.729,473.843z"/>
			<path style="fill:#1C1C1B;" d="M178.582,472.002c0-2.322,1.659-4.197,3.948-4.197c2.422,0,3.848,1.891,3.848,4.296v0.316h-6.486
				c0.1,1.509,1.161,2.77,2.886,2.77c0.912,0,1.841-0.365,2.471-1.012l0.597,0.813c-0.796,0.796-1.874,1.227-3.185,1.227
				C180.29,476.215,178.582,474.507,178.582,472.002z M182.513,468.834c-1.709,0-2.555,1.443-2.621,2.67h5.258
				C185.134,470.31,184.337,468.834,182.513,468.834z"/>
			<path style="fill:#1C1C1B;" d="M187.273,474.955l0.647-0.895c0.531,0.614,1.543,1.145,2.637,1.145
				c1.228,0,1.891-0.581,1.891-1.377c0-1.94-4.96-0.746-4.96-3.716c0-1.244,1.078-2.306,2.985-2.306c1.36,0,2.323,0.514,2.969,1.161
				l-0.581,0.863c-0.481-0.581-1.36-1.012-2.389-1.012c-1.095,0-1.775,0.547-1.775,1.261c0,1.758,4.96,0.597,4.96,3.716
				c0,1.344-1.078,2.422-3.151,2.422C189.197,476.215,188.086,475.817,187.273,474.955z"/>
			<path style="fill:#1C1C1B;" d="M195.053,466.031c0-0.464,0.382-0.846,0.829-0.846c0.465,0,0.846,0.381,0.846,0.846
				c0,0.465-0.381,0.829-0.846,0.829C195.434,466.86,195.053,466.495,195.053,466.031z M195.268,476.016v-8.012h1.244v8.012H195.268
				z"/>
			<path style="fill:#1C1C1B;" d="M198.569,478.073l0.63-0.929c0.663,0.796,1.46,1.095,2.604,1.095c1.327,0,2.571-0.647,2.571-2.405
				v-1.145c-0.581,0.813-1.559,1.427-2.687,1.427c-2.09,0-3.566-1.559-3.566-4.147c0-2.571,1.46-4.163,3.566-4.163
				c1.078,0,2.04,0.531,2.687,1.41v-1.211h1.244v7.78c0,2.654-1.858,3.483-3.815,3.483
				C200.443,479.267,199.514,479.002,198.569,478.073z M204.374,473.711v-3.5c-0.432-0.697-1.393-1.294-2.389-1.294
				c-1.609,0-2.571,1.277-2.571,3.052c0,1.758,0.962,3.052,2.571,3.052C202.981,475.021,203.943,474.408,204.374,473.711z"/>
			<path style="fill:#1C1C1B;" d="M213.099,476.016v-5.242c0-1.41-0.713-1.858-1.791-1.858c-0.979,0-1.908,0.597-2.372,1.244v5.855
				h-1.244v-8.012h1.244v1.161c0.564-0.663,1.658-1.36,2.853-1.36c1.675,0,2.555,0.846,2.555,2.588v5.623H213.099z"/>
			<path style="fill:#1C1C1B;" d="M215.952,472.002c0-2.322,1.659-4.197,3.948-4.197c2.422,0,3.848,1.891,3.848,4.296v0.316h-6.486
				c0.099,1.509,1.161,2.77,2.886,2.77c0.912,0,1.841-0.365,2.472-1.012l0.597,0.813c-0.796,0.796-1.874,1.227-3.185,1.227
				C217.66,476.215,215.952,474.507,215.952,472.002z M219.883,468.834c-1.708,0-2.555,1.443-2.621,2.67h5.258
				C222.503,470.31,221.707,468.834,219.883,468.834z"/>
			<path style="fill:#1C1C1B;" d="M231.146,476.016v-1.194c-0.597,0.813-1.576,1.393-2.704,1.393c-2.09,0-3.566-1.592-3.566-4.196
				c0-2.555,1.46-4.213,3.566-4.213c1.078,0,2.057,0.531,2.704,1.41v-4.263h1.244v11.064H231.146z M231.146,473.843v-3.633
				c-0.448-0.697-1.41-1.294-2.405-1.294c-1.609,0-2.571,1.327-2.571,3.102c0,1.775,0.962,3.085,2.571,3.085
				C229.736,475.104,230.697,474.54,231.146,473.843z"/>
			<path style="fill:#1C1C1B;" d="M238.327,476.016v-11.064h1.244v4.263c0.647-0.879,1.609-1.41,2.704-1.41
				c2.09,0,3.566,1.659,3.566,4.213c0,2.604-1.476,4.196-3.566,4.196c-1.128,0-2.107-0.581-2.704-1.393v1.194H238.327z
				 M241.96,475.104c1.626,0,2.588-1.31,2.588-3.085c0-1.775-0.962-3.102-2.588-3.102c-0.979,0-1.957,0.597-2.388,1.294v3.633
				C240.003,474.54,240.981,475.104,241.96,475.104z"/>
			<path style="fill:#1C1C1B;" d="M247.201,478.023c0.182,0.083,0.481,0.133,0.68,0.133c0.547,0,0.912-0.182,1.194-0.846
				l0.531-1.211l-3.351-8.095h1.344l2.671,6.569l2.654-6.569h1.36l-4.014,9.637c-0.481,1.161-1.294,1.609-2.356,1.625
				c-0.265,0-0.68-0.05-0.912-0.116L247.201,478.023z"/>
		</g>
	</g>
</g>
</svg>
