<?xml version="1.0" encoding="utf-8"?>
<!-- Generator: Adobe Illustrator 27.5.0, SVG Export Plug-In . SVG Version: 6.00 Build 0)  -->
<svg version="1.1" xmlns="http://www.w3.org/2000/svg" xmlns:xlink="http://www.w3.org/1999/xlink" x="0px" y="0px"
	 viewBox="0 0 1122 1122" style="enable-background:new 0 0 1122 1122;" xml:space="preserve">
<g id="background">
	<rect x="0.664" y="0" style="fill:#FFFFFF;" width="1122" height="1122"/>
</g>
<g id="object">
	<g>
		<g>
			<path style="fill:#5E625E;" d="M440.746,388.178c-1.617,5.26-3.248,10.636-2.894,16.083c0.354,5.447,3.056,11.076,8.303,13.84
				c6.005,3.162,13.936,1.813,19.714-1.673c5.778-3.485,9.871-8.748,13.827-13.887c8.911-11.576,17.822-23.152,26.733-34.728
				c18.869-24.511,38.28-50.238,42.719-79.755c0.565-3.757,0.826-7.792-1.183-11.128c-2.715-4.508-9.07-6.502-14.738-5.862
				c-5.668,0.64-10.746,3.428-15.292,6.531c-9.401,6.416-17.394,14.485-23.39,23.613c3.241-10.747,6.483-21.495,9.724-32.243
				c2.087-6.921,12.873-34.595,8.955-40.844c-3.879-6.186-14.87-10-19.545-3.372c-5.868,8.321-15.984,43.217-18.919,52.766
				c-7.202,23.431-14.404,46.862-21.606,70.292C449.018,361.267,444.882,374.722,440.746,388.178z"/>
		</g>
		<g>
			<path style="fill:#F0DCCE;" d="M608.995,220.548c-0.367,5.81-0.758,11.737-2.683,17.114
				c-4.299,12.008-15.14,18.729-25.324,24.088c-7.803,4.107-16.782,8.008-24.678,4.147c-6.765-3.309-18.794-8.016-23.971-14.069
				c-3.935-4.601-5.624-11.312-9.369-16.123c-8.406-10.799-5.443-26.557-5.495-41.129c-0.066-18.427,3.217-38.572,15.354-50.405
				c6.371-6.211,14.526-9.417,22.679-11.295c7.654-1.763,15.67-2.453,23.195-0.053c9.32,2.972,17.234,10.561,22.762,19.786
				C614.719,174.728,610.587,195.36,608.995,220.548z"/>
		</g>
		<g>
			<path style="fill:#998675;" d="M495.163,503.784c0,0,10.269,371.975,14.053,432.024l28.803-1.087
				c0,0,14.685-290.782,37.282-310.361c0,0,9.754-2.038,13.652-0.913c3.898,1.125,35.373,286.181,30.52,308.876l25.511-1.706
				c0,0,31.592-350.536,22.466-435.913c0,0-0.679-43.147-76.163-34.207C515.802,469.436,499.918,460.569,495.163,503.784z"/>
		</g>
		<g>
			<path style="fill:#5E625E;" d="M488.213,531.301c0.104,4.099,0.239,8.325,2.157,12.038c4.658,9.017,26.125,7.973,37.402,9.207
				c38.342,4.198,87.517,7.08,125.99,2.55c4.259-0.501,8.669-1.107,12.276-3.191c6.26-3.616,8.485-10.624,9.855-17.04
				c6.489-30.385-5.378-64.52-7.147-95.263c-1.453-25.241-2.908-50.511-6.537-75.549c-3.447-23.782-9.027-47.746-22.246-68.6
				c-4.109-6.482-9.205-12.836-16.659-16.364c-6.742-3.191-14.717-3.742-22.436-3.88c-15.232-0.273-30.523,0.812-45.56,3.23
				c-10.482,1.686-18.065,0.919-28.196-0.143c-5.441-0.57-4.31-1.857-7.475,2.278c-2.59,3.384-3.189,9.9-4.344,13.827
				c-5.422,18.426-9.425,37.138-12.341,55.951c-5.872,37.882-7.335,76.106-7.272,114.204
				C495.713,485.569,487.681,510.302,488.213,531.301z"/>
		</g>
		<g>
			<path style="fill:#3D322B;" d="M601.28,940.791c-1.628,1.61-2.934,3.579-5.012,4.672c-3.688,1.939-8.526,0.496-12.403,2.091
				c-4.594,1.89-6.054,7.119-6.739,11.665c-0.723,4.798-0.824,10.521,3.368,13.428c2.652,1.84,6.263,1.939,9.613,1.901
				c19.361-0.221,38.721-2.529,57.548-6.861c1.996-0.459,4.115-1.012,5.467-2.438c1.448-1.528,1.673-3.697,1.722-5.706
				c0.237-9.742-0.82-30.001-15.056-30.218C629.658,929.171,608.139,934.009,601.28,940.791z"/>
		</g>
		<g>
			<path style="fill:#3D322B;" d="M509.977,927.362c-1.418-0.098-2.917-0.177-4.163,0.579c-3,1.821-2.666,6.859-4.11,10.404
				c-1.859,4.565-6.628,6.355-10.974,7.056c-4.346,0.701-9.028,0.88-12.56,3.832c-5.015,4.192-5.893,12.338-5.971,19.553
				c-0.018,1.629,0.006,3.356,0.746,4.76c1.25,2.374,3.978,2.914,6.357,3.164c18.658,1.955,37.491,1.054,55.85-2.672
				c4.175-0.847,8.9-2.341,10.636-6.788c2.886-7.389,3.315-26.458-2.401-32.915C536.724,926.81,518.451,926.796,509.977,927.362z"/>
		</g>
		<g>
			<path style="fill:#7A5637;" d="M513.535,130.077c-11.552,9.372-20.325,23.646-18.836,38.447c0.43,4.274,1.688,8.421,3.147,12.461
				c1.223,3.386,2.664,6.828,5.27,9.312c2.86,2.728,6.849,4.003,10.785,4.36c8.311,0.754,16.895-2.427,22.708-8.415
				c1.401-1.443,2.673-3.059,4.378-4.125c1.705-1.067,4.024-1.469,5.691-0.345c1.083,0.73,1.708,1.964,2.652,2.867
				c3.125,2.993,8.293,1.451,12.063-0.674c3.77-2.124,7.996-4.767,12.101-3.397c3.92,1.308,6.614,6.057,10.73,5.685
				c1.378-0.124,2.738-0.851,4.082-0.522c0.766,0.188,1.407,0.697,2.021,1.193c3.881,3.136,7.843,6.363,10.417,10.638
				c3.871,6.429,4.108,14.354,3.849,21.854c1.092-0.61,2.465-0.69,3.62-0.209c-0.219,2.969-2.027,5.584-2.677,8.49
				c-0.65,2.906,0.702,6.785,3.678,6.891c1.317-4.117,2.641-8.25,4.534-12.136c2.472-5.074,5.876-9.644,8.455-14.666
				c6.619-12.891,7.424-28.104,5.315-42.441c-1.673-11.368-5.319-22.88-13.139-31.299c-5.906-6.358-13.868-10.558-22.199-12.989
				c-8.331-2.43-17.06-3.183-25.735-3.425c-9.292-0.259-18.049,2.278-27.154,2.191C529.735,119.733,520.82,124.167,513.535,130.077z
				"/>
		</g>
		<g>
			<g>
				<g>
					<g>
						<path style="fill:#363636;" d="M574.093,190.536c-1.258-1.102-3.063-1.251-4.732-1.347c-7.126-0.41-14.251-0.819-21.377-1.229
							c-1.069-0.061-2.232-0.097-3.102,0.528c-1.246,0.896-1.322,2.677-1.859,4.115c-1.683,4.51-7.63,5.28-12.444,5.291
							c-4.814,0.011-10.752,0.729-12.497,5.215c-0.572,1.471-0.544,3.097-0.508,4.674c0.254,11.094,0.507,22.187,0.761,33.281
							c0.032,1.399,0.083,2.868,0.796,4.072c1.311,2.215,4.255,2.691,6.817,2.937c23.715,2.273,47.801,4.532,71.221,0.166
							c1.225-0.228,2.518-0.511,3.417-1.374c0.864-0.829,1.209-2.048,1.496-3.211c2.835-11.481,3.451-23.505,1.802-35.215
							c-0.508-3.613-1.664-7.755-5.043-9.131c-2.919-1.189-6.168,0.245-9.296,0.63c-5.303,0.653-10.871-2.085-13.592-6.683
							C575.391,192.306,574.923,191.264,574.093,190.536z"/>
					</g>
				</g>
				<g>
					<g>
						<path style="fill:#FFFFFF;" d="M567.368,196.057c-0.151,1.646-0.301,3.293-0.451,4.939c-0.078,0.853-0.23,1.83-0.961,2.276
							c-0.436,0.266-0.979,0.27-1.49,0.26c-4.592-0.086-9.177-0.577-13.683-1.466c0.107-2.631,0.556-5.248,1.331-7.765
							c0.152-0.493,0.326-0.999,0.683-1.372c0.734-0.765,1.95-0.715,3.005-0.61c3.072,0.306,6.144,0.612,9.216,0.919
							c0.734,0.073,1.55,0.189,2.012,0.764C567.475,194.558,567.433,195.348,567.368,196.057z"/>
					</g>
				</g>
				<g>
					<path style="fill:#2B2B2B;" d="M542.532,207.558c4.805-2.297,10.306-2.82,15.612-2.358c2.841,0.247,5.758,0.806,8.093,2.444
						c1.041,0.73,1.932,1.652,2.815,2.568c2.113,2.19,4.254,4.42,5.666,7.115c2.112,4.035,2.409,8.754,2.425,13.308
						c0.008,2.261-0.045,4.546-0.607,6.735c-1.559,6.07-7.354,10.79-13.613,11.09c-2.758,0.132-5.49-0.508-8.16-1.21
						c-4.312-1.134-8.643-2.473-12.386-4.896c-3.743-2.423-6.88-6.078-7.793-10.443c-0.568-2.711-0.269-5.512-0.763-8.231
						c-0.389-2.138-1.48-3.878-0.867-6.059C534.201,213.179,538.526,209.473,542.532,207.558z"/>
				</g>
				<g style="opacity:0.47;">
					<g>
						<path style="fill:#E2EFEF;" d="M567.368,196.057c-0.151,1.646-0.301,3.293-0.451,4.939c-0.078,0.853-0.23,1.83-0.961,2.276
							c-0.436,0.266-0.979,0.27-1.49,0.26c-4.592-0.086-9.177-0.577-13.683-1.466c0.107-2.631,0.556-5.248,1.331-7.765
							c0.152-0.493,0.326-0.999,0.683-1.372c0.734-0.765,1.95-0.715,3.005-0.61c3.072,0.306,6.144,0.612,9.216,0.919
							c0.734,0.073,1.55,0.189,2.012,0.764C567.475,194.558,567.433,195.348,567.368,196.057z"/>
					</g>
				</g>
				<g>
					<g>
						<path style="fill:#3D3D3D;" d="M574.516,232.586c0.386-2.333,0.316-4.748-0.279-7.037c-0.545-2.099-1.52-4.065-2.636-5.925
							c-4.378-7.295-11.961-13.484-20.46-13.106c-9.272,0.412-16.714,8.68-19.114,17.646c-0.568,2.121-0.919,4.338-0.626,6.514
							c0.272,2.025,1.093,3.942,2.109,5.715c4.452,7.771,13.278,13.086,22.216,12.52
							C564.664,248.346,573.054,241.423,574.516,232.586z"/>
					</g>
				</g>
				<g>
					<g>
						<path style="fill:#9A9A9A;" d="M541.925,238.415c2.862,3.761,7.581,6.033,12.305,5.927c4.725-0.106,9.336-2.586,12.031-6.468
							c0.944-1.36,1.661-2.877,2.114-4.47c1.43-5.033,0.032-10.72-3.396-14.673c-3.047-3.515-7.623-5.66-12.274-5.736
							c-4.651-0.077-9.302,1.921-12.435,5.36c-1.404,1.541-2.525,3.39-2.948,5.432c-0.678,3.268,0.472,6.625,1.83,9.673
							C539.923,235.193,540.776,236.905,541.925,238.415z"/>
					</g>
				</g>
				<g>
					<g>
						<path style="fill:#666666;" d="M576.311,148.338c-0.268-0.183-0.396-0.525-0.293-0.85l2.374-7.471
							c0.127-0.396,0.55-0.616,0.946-0.49c0.398,0.13,0.616,0.55,0.49,0.946l-2.374,7.471c-0.127,0.396-0.55,0.616-0.946,0.49
							C576.436,148.411,576.37,148.378,576.311,148.338z"/>
					</g>
				</g>
				<g>
					<g>
						<path style="fill:#666666;" d="M581.255,151.396c-0.052-0.035-0.1-0.077-0.142-0.127c-0.274-0.313-0.242-0.789,0.071-1.062
							c2.064-1.804,3.967-3.815,5.655-5.978c0.245-0.314,0.691-0.382,1.018-0.158c0.003,0.002,0.007,0.005,0.01,0.007
							c0.328,0.232,0.416,0.682,0.2,1.02l-0.764,1.198c-0.112,0.177-0.287,0.291-0.477,0.332c-1.433,1.682-2.991,3.262-4.651,4.712
							C581.911,151.572,581.531,151.585,581.255,151.396z"/>
					</g>
				</g>
				<g>
					<g>
						<path style="fill:#666666;" d="M583.665,157.199c-0.15-0.102-0.264-0.259-0.309-0.451c-0.095-0.405,0.157-0.81,0.562-0.905
							c2.985-0.697,6.048-0.916,9.104-0.651c0.415,0.035,0.722,0.401,0.686,0.815c-0.036,0.415-0.401,0.721-0.815,0.686
							c-2.898-0.251-5.803-0.043-8.633,0.618C584.047,157.361,583.833,157.314,583.665,157.199z"/>
					</g>
				</g>
				<g>
					<path style="fill:#2B2B2B;" d="M525.769,198.115c0.024,0.19,0.057,0.393,0.19,0.533c0.107,0.112,0.261,0.165,0.41,0.209
						l5.511-0.047c-0.009-1.072-0.017-2.144-0.026-3.217c-0.997,0.171-1.997-0.19-2.995-0.355c-0.998-0.165-2.184-0.057-2.771,0.767
						C525.666,196.599,525.68,197.392,525.769,198.115z"/>
				</g>
				<g>
					<path style="fill:#2B2B2B;" d="M548.052,185.483c0.03-0.255,0.064-0.524,0.217-0.73c0.268-0.363,0.786-0.404,1.237-0.411
						c5.88-0.093,11.765,0.084,17.629,0.533c0.599,0.046,1.214,0.098,1.756,0.358c0.606,0.29,1.07,0.817,1.419,1.391
						c0.544,0.898,0.842,1.943,0.851,2.993c0.003,0.377-0.052,0.799-0.347,1.034c-0.263,0.21-0.634,0.201-0.969,0.173
						c-2.366-0.201-4.66-0.907-7.012-1.229c-3.315-0.453-6.661-0.128-9.991-0.276C549.386,189.163,547.62,189.197,548.052,185.483z"
						/>
				</g>
				<g>
					<path style="fill:#363636;" d="M569.867,186.189c0.896,0.055,1.862,0.093,2.614-0.398c1.239-0.809,1.281-2.566,1.305-4.045
						c0.126-7.85,3.524-15.461,3.02-23.296c-0.076-1.181-0.25-2.386-0.808-3.429c-1.249-2.335-4.047-3.302-6.611-3.961
						c-6.059-1.557-12.544-2.509-18.506-0.617c-0.81,0.257-1.637,0.587-2.203,1.222c-0.495,0.556-0.737,1.287-0.949,2.001
						c-2.532,8.524-2.55,17.595-1.834,26.458c0.088,1.093,0.201,2.229,0.771,3.165c1.671,2.744,7.741,1.915,10.435,2.09
						C561.355,185.655,565.611,185.925,569.867,186.189z"/>
				</g>
				<g>
					<path style="fill:#E2EFEF;" d="M568.34,155.819c0.988,0.251,2.022,0.527,2.759,1.231c1.335,1.275,1.208,3.404,0.976,5.236
						c-0.592,4.66-1.237,9.314-1.932,13.96c-0.125,0.833-0.278,1.723-0.86,2.332c-0.533,0.558-1.323,0.771-2.075,0.942
						c-4.302,0.979-8.741,1.356-13.147,1.117c-1.395-0.076-3.053-0.399-3.578-1.694c-0.177-0.437-0.188-0.922-0.197-1.393
						c-0.07-3.822-0.139-7.644-0.209-11.466c-0.035-1.911-0.07-3.822-0.105-5.733c-0.026-1.426-0.539-3.817,0.075-5.15
						C552.141,150.647,564.874,154.938,568.34,155.819z"/>
				</g>
			</g>
			<g>
				<path style="fill:#A8A8A8;" d="M555.633,225.779c-1.009-0.978-2.557-1.258-3.933-0.97l0.869,0.256
					c-0.145,0.21-0.464,0.104-0.715,0.057c-0.698-0.132-1.363,0.416-1.685,1.049c-0.643,1.264-0.259,2.936,0.813,3.864
					c1.073,0.928,2.716,1.086,3.99,0.464c0.431-0.211,0.827-0.505,1.116-0.889C556.935,228.487,556.643,226.757,555.633,225.779z"/>
			</g>
		</g>
		<g>
			<path style="fill:#F0DCCE;" d="M504.745,201.227c1.892-4.287,3.642-8.697,6.425-12.468c2.783-3.77,6.805-6.9,11.46-7.443
				c2.126-0.248,4.458,0.126,6.003,1.607c2.164,2.075,2.11,5.49,1.903,8.481c-0.515,7.429-1.11,15.135-4.748,21.633
				c-3.276,5.85-8.97,10.296-15.439,12.057c-4.94,1.345-14.014,0.721-14.128-6.057C496.133,213.932,502.662,205.945,504.745,201.227
				z"/>
		</g>
		<g>
			<path style="fill:#363636;" d="M566.085,386.439c3.584,10.364,16.223,27.361,21.673,36.877
				c6.37,11.122,13.987,21.469,22.846,30.731c13.137,13.734,25.413,27.473,39.748,39.95c9.578,8.337,17.108,8.92,30.441,17.075
				c0.667-2.795,0.507-2.123,1.174-4.918c0.213-0.894,0.428-1.825,0.237-2.724c-0.312-1.473-1.609-2.497-2.819-3.392
				c-7.901-5.843-15.802-11.686-23.703-17.529c-5.059-3.742-10.132-7.494-14.724-11.797c-6.076-5.693-11.234-12.278-16.367-18.834
				c-8.762-11.192-17.524-22.385-26.286-33.577c-5.263-6.723-10.534-13.456-15.231-20.587
				c-20.168-30.615-28.787-67.259-31.114-103.461c-0.32-4.978,2.152-23.946-0.802-27.335c-5.458-6.261-6.984,3.539-7.554,7.554
				c-2.506,17.644-0.989,30.545,3.073,47.595C552.159,345.08,558.358,364.097,566.085,386.439z"/>
		</g>
		<g>
			<g>
				<path style="fill:#333333;" d="M676.793,419.687c0.161-2.176,0.385-4.51,1.792-6.177c1.678-1.988,4.514-2.437,7.096-2.754
					c2.489-0.306,4.979-0.612,7.468-0.918c1.534-0.188,3.152-0.366,4.575,0.238c2.433,1.034,3.413,3.899,4.125,6.445
					c1.451,5.189,2.901,10.379,4.352,15.568c0.75,2.682,1.319,6.026-0.784,7.85c-1.234,1.07-3.002,1.208-4.493,1.877
					c-3.201,1.435-4.73,5.082-5.58,8.485c-1.015,4.06-1.49,8.254-1.408,12.438c-3.906,0.774-7.856,1.33-11.824,1.666
					c-7.08,0.599-6.057-13.872-6.252-18.847C675.518,436.926,676.155,428.291,676.793,419.687z"/>
			</g>
			<g>
				<path style="fill:#363636;" d="M694.779,461.514c1.125,0.036,2.31,0.09,3.265,0.686c1.594,0.995,1.999,3.113,2.103,4.99
					c-4.266,0.542-8.532,1.083-12.799,1.624c-2.688,0.341-14.382,1.323-10.805-5.238
					C678.53,459.933,691.051,461.394,694.779,461.514z"/>
			</g>
			<g>
				<path style="fill:#333333;" d="M710.603,486.152c8.004-0.079,16.011,0.139,23.999,0.653c2.841,0.183,5.914,0.5,8.005,2.432
					c1.587,1.466,2.324,3.62,2.872,5.71c3.023,11.527,1.999,24.073-2.853,34.957c-0.324,0.727-0.698,1.485-1.372,1.909
					c-0.545,0.343-1.212,0.416-1.852,0.481c-12.408,1.26-25.155,2.494-37.18-0.815c-1.013-0.279-2.075-0.627-2.75-1.431
					c-0.501-0.597-0.724-1.373-0.921-2.128c-2.292-8.802-2.688-18.086-1.223-27.06C698.784,491.948,700.572,486.251,710.603,486.152
					z"/>
			</g>
			<g>
				<path style="fill:#363636;" d="M685.148,466.516c6.62-0.796,14.472-1.047,18.651,4.148c2.328,2.894,2.859,6.804,3.145,10.508
					c1.358,17.626-0.865,35.31-3.085,52.848c-0.446,3.524-0.943,7.19-2.918,10.142c-2.97,4.439-8.63,6.266-13.954,6.69
					c-5.14,0.41-11.002-0.565-13.975-4.778c-2.093-2.965-2.255-6.833-2.343-10.461c-0.479-19.836-0.957-39.671-1.435-59.507
					C669.06,468.931,679.693,467.172,685.148,466.516z"/>
			</g>
			<g>
				<path style="fill:#363636;" d="M743.324,484.761c5.667-1.78,11.676-2.466,17.599-2.01c1.172,0.09,2.381,0.238,3.391,0.838
					c1.792,1.066,2.543,3.349,2.422,5.431c-0.121,2.082-0.948,4.046-1.648,6.01c-1.508,4.233-2.471,8.811-1.603,13.22
					c0.652,3.311,2.309,6.391,2.686,9.745c0.577,5.139-2.064,10.323-6.1,13.557c-4.036,3.234-9.284,4.683-14.452,4.869
					c-1.081,0.039-2.257-0.005-3.098-0.685c-1.12-0.905-1.216-2.548-1.222-3.988c-0.027-6.999-0.097-13.997-0.209-20.995
					c-0.057-3.566-0.126-7.132-0.205-10.698c-0.071-3.187,0.388-6.981-0.435-10.071c-0.244-0.915-1.079-1.885-0.794-2.87
					C740.038,485.79,742.182,485.12,743.324,484.761z"/>
			</g>
			<g>
				<path style="fill:#9A9A9A;" d="M710.71,513.532c-0.052,0.308-0.104,0.638,0.026,0.923c0.286,0.625,1.282,0.565,1.737,0.049
					c0.455-0.516,0.518-1.258,0.56-1.944c0.414-6.863,0.828-13.727,1.242-20.59c0.02-0.336,0.012-0.736-0.266-0.926
					c-0.162-0.111-0.372-0.116-0.568-0.117c-2.42-0.006-1.626,1.551-1.539,3.571c0.094,2.165,0.109,4.333,0.047,6.499
					C711.829,505.163,710.71,509.415,710.71,513.532z"/>
			</g>
			<g>
				<path style="fill:#333333;" d="M695.249,465.691c-0.248-1.555-0.496-3.11-0.744-4.665c-0.062-0.39-0.137-0.806-0.411-1.091
					c-0.365-0.38-0.954-0.404-1.48-0.404c-0.94,0.002-1.88,0.003-2.82,0.005c-0.905,0.001-1.843,0.009-2.667,0.384
					c-1.359,0.617-2.13,2.133-2.273,3.618c-0.143,1.485,0.235,2.966,0.609,4.41l0.149-0.12c2.923,0.216,5.876,0.014,8.742-0.598
					c0.253-0.054,0.52-0.119,0.703-0.302C695.364,466.622,695.317,466.12,695.249,465.691z"/>
			</g>
		</g>
		<g>
			<path style="fill:#333333;" d="M616.431,219.867c3.8,1.846,5.405,6.328,6.483,10.413c3.162,11.979,4.875,24.34,5.09,36.728
				c0.017,0.955-0.04,2.053-0.791,2.643c-0.518,0.408-1.226,0.449-1.885,0.473c-1.645,0.06-3.472,0.058-4.695-1.044
				c-0.858-0.774-1.231-1.938-1.547-3.05c-2.103-7.404-3.267-15.074-3.456-22.768c-0.094-3.831-0.039-7.972-2.295-11.07
				c-1.753-2.407-4.825-3.787-7.789-3.499c-0.776,0.075-1.695,0.206-2.213-0.377c-0.302-0.341-0.359-0.829-0.391-1.283
				c-0.337-4.756-0.529-6.261,3.453-7.646C609.133,218.436,613.836,218.607,616.431,219.867z"/>
		</g>
		<g>
			<path style="fill:#333333;" d="M510.741,248.04c-0.845,7.994-0.663,16.253,2.036,23.824c1.595,4.475,4.135,8.73,7.9,11.629
				c3.764,2.899,8.866,4.277,13.412,2.894c4.05-1.232,7.164-4.39,10.623-6.83c3.459-2.441,8.062-4.226,11.852-2.339
				c0.667,0.332,1.316,0.779,2.06,0.821c2.448,0.138,2.849-3.468,2.311-5.861c-5.197-1.786-11.011-3.554-16.021-1.295
				c-2.563,1.156-4.6,3.259-7.137,4.47c-5.773,2.755-13.112,0.065-17.035-4.988c-3.923-5.053-4.924-11.856-4.354-18.228
				c0.57-6.372,2.55-12.518,4.024-18.743c0.513-2.164,0.961-4.462,0.284-6.581c-2.571-8.048-5.96,1.977-6.745,4.722
				C512.408,236.931,511.331,242.459,510.741,248.04z"/>
		</g>
		<g>
			<path style="fill:#333333;" d="M600.08,276.262c-0.82-0.127-1.538,0.044-2.183,0.383c-0.544-1.659-1.549-2.951-3.262-3.217
				c-3.612-0.557-5.475,4.113-6.074,7.72c-7.167,43.138-23.684,84.08-40.085,124.616c-4.145,10.247-8.298,20.508-13.371,30.327
				c-7.045,14.09-16.395,27.116-26.303,39.315c-7.504,9.24-24.22,20.442-21.954,33.331c1.927-0.743-0.503,6.638,1.339,5.559
				c-0.413,1.846,3.768-4.648,4.106-2.726c5.248-2.026,10.258-5.574,14.643-9.119c13.566-10.963,22.69-26.367,31.2-41.593
				c13.841-24.767,26.847-50.003,38.987-75.646c8.002-16.905,15.667-34.102,20.151-52.26c3.883-15.73,5.32-31.947,6.561-48.102
				C604.101,281.406,603.495,276.791,600.08,276.262z"/>
		</g>
		<g>
			<path style="fill:#585C58;" d="M596.538,273.627c3.593,12.175,11.573,22.479,18.969,32.795
				c16.113,22.473,30.141,46.353,44.461,70.009c3.216,5.313,6.598,10.778,11.716,14.297c5.118,3.519,12.485,4.559,17.398,0.759
				c3.75-2.901,5.275-7.992,4.975-12.723c-0.3-4.731-2.167-9.209-4.133-13.522c-8.604-18.875-19.642-36.639-32.754-52.713
				c-12.923-15.842-28.172-30.577-35.354-49.718c-1.854-4.941-0.841-13.246-5.93-14.646
				C597.118,243.003,592.873,261.208,596.538,273.627z"/>
		</g>
		<g>
			<path style="fill:#F0DCCE;" d="M583.654,255.795c3.913,0.251,7.756,1.947,11.633,1.36c2.961-0.448,5.547-2.177,8.023-3.861
				c3.312-2.252,6.678-4.555,9.159-7.699c2.481-3.144,3.982-7.32,2.998-11.202c-0.615-2.426-2.48-4.758-4.973-4.982
				c-2.322-0.209-4.433,1.44-5.77,3.349s-2.169,4.14-3.546,6.021c-3.117,4.258-8.559,6.128-13.779,6.905
				c-3.779,0.563-16.483-0.234-18.049,4.141C566.762,257.062,580.647,255.602,583.654,255.795z"/>
		</g>
		<g>
			<path style="fill:#333333;" d="M486.259,485.266c1.896-0.103,4.042-0.115,5.377,1.234c0.589,0.595,0.934,1.384,1.232,2.167
				c4.501,11.828,0.726,25.122,2.305,37.678c0.71,5.647,2.506,11.116,3.197,16.765c0.84,6.87,0.029,13.825,0.103,20.746
				c0.161,15.002,4.373,30.731-1.453,44.557c-1.053,2.499-2.472,4.928-4.616,6.587c-2.828,2.187-6.543,2.775-10.091,3.214
				c-19.479,2.411-39.244,2.493-58.742,0.244c-0.898-0.103-1.846-0.233-2.55-0.799c-0.728-0.586-1.054-1.527-1.326-2.421
				c-2.694-8.847-3.522-18.141-4.198-27.364c-2.166-29.593-2.901-59.386,0.154-88.9c0.264-2.551,0.596-5.21,2.03-7.336
				c5.002-7.412,19.638-3.714,27.124-4.121C458.622,486.762,472.441,486.015,486.259,485.266z"/>
		</g>
	</g>
	<defs>
		<filter id="Adobe_OpacityMaskFilter" filterUnits="userSpaceOnUse" x="452.488" y="957.15" width="285.697" height="31.054">
			<feFlood  style="flood-color:white;flood-opacity:1" result="back"/>
			<feBlend  in="SourceGraphic" in2="back" mode="normal"/>
		</filter>
	</defs>
	<mask maskUnits="userSpaceOnUse" x="452.488" y="957.15" width="285.697" height="31.054" id="SVGID_1_">
		<g style="filter:url(#Adobe_OpacityMaskFilter);">
			<defs>
				
					<filter id="Adobe_OpacityMaskFilter_00000147908982644218575410000018192723622628165804_" filterUnits="userSpaceOnUse" x="452.488" y="957.15" width="285.697" height="31.054">
					<feFlood  style="flood-color:white;flood-opacity:1" result="back"/>
					<feBlend  in="SourceGraphic" in2="back" mode="normal"/>
				</filter>
			</defs>
			<mask maskUnits="userSpaceOnUse" x="452.488" y="957.15" width="285.697" height="31.054" id="SVGID_1_">
				<g style="filter:url(#Adobe_OpacityMaskFilter_00000147908982644218575410000018192723622628165804_);">
				</g>
			</mask>
			
				<linearGradient id="SVGID_00000162333873468006534200000017658908663658885255_" gradientUnits="userSpaceOnUse" x1="732.6245" y1="2035.9689" x2="1018.2502" y2="2035.9689" gradientTransform="matrix(0.9987 0.0511 -0.0412 0.8045 -195.0338 -709.8885)">
				<stop  offset="0" style="stop-color:#FFFFFF"/>
				<stop  offset="1" style="stop-color:#000000"/>
			</linearGradient>
			<path style="mask:url(#SVGID_1_);fill:url(#SVGID_00000162333873468006534200000017658908663658885255_);" d="M454.16,966.61
				c-4.637,6.067,1.288,10.303,6.598,12.233c15.403,5.597,37.591,4.785,54.298,6.122c58.138,4.651,116.601,3.664,174.727,0.976
				c14.427-0.667,28.999-1.461,42.735-4.891c1.869-0.467,3.848-1.059,4.922-2.37c1.572-1.92,0.484-4.696-1.656-6.291
				c-2.14-1.596-5.04-2.295-7.832-2.924c-68.343-15.409-141.504-11.904-212.024-12.106
				C464.183,957.209,455.445,964.928,454.16,966.61z"/>
		</g>
	</mask>
	
		<linearGradient id="SVGID_00000066511565920700986010000017079601270713439362_" gradientUnits="userSpaceOnUse" x1="732.6245" y1="2035.9689" x2="1018.2502" y2="2035.9689" gradientTransform="matrix(0.9987 0.0511 -0.0412 0.8045 -195.0338 -709.8885)">
		<stop  offset="0" style="stop-color:#272525"/>
		<stop  offset="1" style="stop-color:#FFFFFF"/>
	</linearGradient>
	<path style="opacity:0.35;fill:url(#SVGID_00000066511565920700986010000017079601270713439362_);" d="M454.16,966.61
		c-4.637,6.067,1.288,10.303,6.598,12.233c15.403,5.597,37.591,4.785,54.298,6.122c58.138,4.651,116.601,3.664,174.727,0.976
		c14.427-0.667,28.999-1.461,42.735-4.891c1.869-0.467,3.848-1.059,4.922-2.37c1.572-1.92,0.484-4.696-1.656-6.291
		c-2.14-1.596-5.04-2.295-7.832-2.924c-68.343-15.409-141.504-11.904-212.024-12.106C464.183,957.209,455.445,964.928,454.16,966.61
		z"/>
</g>
</svg>
