<?xml version="1.0" encoding="utf-8"?>
<!-- Generator: Adobe Illustrator 27.5.0, SVG Export Plug-In . SVG Version: 6.00 Build 0)  -->
<svg version="1.1" xmlns="http://www.w3.org/2000/svg" xmlns:xlink="http://www.w3.org/1999/xlink" x="0px" y="0px"
	 viewBox="0 -500 500 500" style="enable-background:new 0 -500 500 500;" xml:space="preserve">
<g id="BACKGROUND">
	<rect y="-500" style="fill:#DFEDEB;" width="500" height="500"/>
</g>
<g id="OBJECTS">
	<g>
		<rect x="65.06" y="-463.2" style="fill:#855642;" width="210" height="276.17"/>
		<g>
			<rect x="73.18" y="-454.76" style="fill:#D0E5F7;" width="193.75" height="259.28"/>
			<path style="fill:#FFFFFF;" d="M266.93-393.9v178.75H73.18v-219.94c5.65,1.14,10.88,3.55,15.25,7.13
				c12.31,10.09,16.79,28.67,10.42,43.26c8.3,1.07,15.85,6.81,19.08,14.54c11.22-8.93,28.47-9.23,39.99-0.7
				c11.52,8.52,16.27,25.11,11.02,38.44c6.57-2.39,14.51-0.35,19.11,4.92c7.72-9.9,21.64-14.49,33.73-11.12
				c-3.35-15.28,1.85-32.16,13.23-42.91C243.51-389.56,255.25-393.95,266.93-393.9z"/>
			<path style="fill:#6A6C3B;" d="M135.14-231.24c-0.06-2.73,1.62-5.42,4.1-6.56c2.48-1.14,5.62-0.66,7.64,1.17
				c0.18-4,6.19-6.14,8.85-3.14c-0.33-5.44,5.98-10.1,11.08-8.2c-1.08-4.22,1.99-9.03,6.28-9.82c4.29-0.79,8.87,2.61,9.36,6.94
				c3.89-6.01,14.19-6.01,18.09-0.02c2.26-3.99,8.42-5.01,11.84-1.95c0.08-3.69,2.61-7.21,6.08-8.45c3.47-1.24,7.66-0.14,10.07,2.66
				c-0.34-4.99,6.72-7.93,10.94-5.26c4.22,2.67,5.39,8.5,4.33,13.39c4.38-3.73,11.72-3.23,15.55,1.06
				c4.63-1.9,10.02,1.81,11.79,6.49c1.77,4.68,0.94,9.9,0.08,14.83C225.94-231.43,180.37-231.11,135.14-231.24z"/>
			<path style="fill:#BFE0DC;" d="M266.93-226.83v29.98c-5.61,0.49-11.24,0.94-16.87,1.37H73.18v-35.21
				C137.44-234.36,202.88-233.09,266.93-226.83z"/>
			<path style="fill:#FFFFFF;" d="M266.93-429.06v17.56c-26.82,0.21-53.62,0.36-80.03-0.49c3.39-8.1,14.22-12.06,22.04-8.07
				c2.52-4.54,8.61-6.73,13.45-4.83c-0.7-7.55,5.33-15.09,12.84-16.07c7.52-0.99,15.28,4.75,16.55,12.22
				C255.96-432.25,262.6-432.36,266.93-429.06z"/>
			<path style="fill:#FFFFFF;" d="M147.12-426.97c-25.77,0.08-49.03,0.72-73.94,0.77v-19.12c0.13-0.12,0.27-0.23,0.41-0.33
				c5.58-4.11,14.04-1.65,17.19,5c2.2-2.02,5.94-1.18,7.29,1.64c3.63-6.33,10.41-10.14,17.04-9.58c6.64,0.56,12.85,5.46,15.62,12.33
				C137.02-437.99,143.68-433.2,147.12-426.97z"/>
		</g>
	</g>
	<g>
		<ellipse style="fill:#B6D4D3;" cx="150.1" cy="-50.47" rx="101" ry="12.72"/>
		<g>
			<g>
				<g>
					<path style="fill:#D47542;" d="M99.4-152.57l-4.55,18.46l-19.9,80.72c-0.46,1.86-2.59,3.16-4.97,3.16
						c-0.31,0-0.61-0.02-0.92-0.07c-2.72-0.37-4.54-2.36-4.09-4.45l17.43-80.43l4.46-20.6L99.4-152.57z"/>
					<path style="fill:#5E3429;" d="M86.86-155.77l12.54,3.2l-4.55,18.46c-4.16-0.29-8.31-0.64-12.45-1.05L86.86-155.77z"/>
				</g>
				<g>
					<path style="fill:#D47542;" d="M158.52-154.23l-0.5,21.83l-2.04,88.38c-0.05,2.31-2.3,4.15-5.05,4.15h-0.07
						c-2.77-0.03-5-1.9-5.01-4.23l-0.31-87.45l-0.09-24.39L158.52-154.23z"/>
					<path style="fill:#5E3429;" d="M145.45-155.93l13.07,1.7l-0.5,21.83c-4.16,0.36-8.32,0.64-12.48,0.87L145.45-155.93z"/>
				</g>
				<g>
					<path style="fill:#D47542;" d="M225.17-50.3c-0.31,0.05-0.61,0.07-0.92,0.07c-2.38,0-4.51-1.3-4.97-3.16l-21.21-86.04
						l-3.24-13.14l12.54-3.2l3.04,14.01l18.85,87.02C229.71-52.65,227.89-50.67,225.17-50.3z"/>
					<path style="fill:#5E3429;" d="M210.41-141.76c-4.1,0.84-8.22,1.62-12.34,2.33l-3.24-13.14l12.54-3.2L210.41-141.76z"/>
				</g>
			</g>
			<g>
				<g>
					<path style="fill:#9DBBCC;" d="M224.92-162.63c-19.05-2.14-46.84-3.48-77.81-3.48s-58.76,1.35-77.81,3.48H43.13v6.86
						c0,5.71,46.56,10.34,103.99,10.34s103.99-4.63,103.99-10.34v-6.86H224.92z"/>
				</g>
				<ellipse style="fill:#E6F5FF;" cx="147.12" cy="-162.63" rx="103.99" ry="10.34"/>
			</g>
			<g>
				<g>
					<g>
						<path style="fill:#67693C;" d="M126-279.47c-0.52-4.02,0.35-8.67,2.82-11.88c2.48-3.21,5.28-4.54,9.3-5.05
							c-1.25,3.66-1.52,5.97-3.86,9.69C132.21-283.44,129.35-280.31,126-279.47z"/>
						<g>
							<path style="fill:#67693C;" d="M122.85-272.33c1.59-3.17,4.32-5.76,7.58-7.18c3.25-1.42,7.01-1.66,10.41-0.67
								c-0.99,3.37-3.89,5.93-7.15,7.24C130.44-271.61,126.85-271.39,122.85-272.33z"/>
							<path style="fill:#3B3D1F;" d="M136.23-278.11c-4.74,1.71-9.33,3.83-13.71,6.32c0.07-0.19,0.13-0.38,0.2-0.57
								C126.96-274.9,131.53-276.88,136.23-278.11z"/>
						</g>
						<g>
							<path style="fill:#67693C;" d="M119.48-264.99c2.2-7.08,1.31-15.38-2.29-21.28c-2.27,2.99-3.5,7.12-3.31,11.13
								C114.07-271.13,115.68-267.32,119.48-264.99z"/>
							<path style="fill:#3B3D1F;" d="M119.46-264.64c-2.48-5.03-3.44-10.8-2.68-16.5c-0.3,5.44,0.75,10.94,3.04,15.88
								C119.69-265.09,119.56-264.92,119.46-264.64z"/>
						</g>
						<g>
							<path style="fill:#67693C;" d="M116.21-255.8c1.47-3.5,4.2-6.46,7.58-8.21s7.36-2.28,11.08-1.48
								C131.36-258.65,123.66-254.19,116.21-255.8z"/>
							<path style="fill:#3B3D1F;" d="M129.03-262.32c-4.58,1.84-9.01,4.07-13.19,6.71c-0.01,0.16-0.01,0.33-0.02,0.49
								C119.91-257.59,124.15-259.82,129.03-262.32z"/>
						</g>
						<g>
							<path style="fill:#67693C;" d="M113.48-247.37c1.49-3.4,1.69-7.34,0.56-10.87c-1.13-3.53-3.6-6.62-6.79-8.51
								c-1.37,3.3-1.48,7.1-0.31,10.48C108.11-252.9,110.56-249.99,113.48-247.37z"/>
							<path style="fill:#3B3D1F;" d="M113.42-246.51c-1.7-5.02-3.32-10.06-4.71-15.31c1.71,4.89,3.41,9.77,5.12,14.66
								C113.64-246.95,113.46-246.74,113.42-246.51z"/>
						</g>
						<g>
							<path style="fill:#67693C;" d="M111.96-240.19c1.32-3.34,3.92-6.15,7.15-7.73c3.23-1.58,7.04-1.9,10.49-0.89
								C126.04-242.92,119.08-239.26,111.96-240.19z"/>
							<path style="fill:#3B3D1F;" d="M111.46-239.84c3.9-2.83,8.19-5.12,13.14-6.84c-4.59,1.99-8.98,4.44-13.07,7.3
								C111.54-239.63,111.55-239.88,111.46-239.84z"/>
						</g>
						<g>
							<path style="fill:#67693C;" d="M110.92-236.05c0.46-3.4-0.3-6.96-2.13-9.87c-1.82-2.91-4.69-5.15-7.96-6.21
								c-0.35,3.26,0.49,6.64,2.34,9.35C105.02-240.07,107.87-238.05,110.92-236.05z"/>
							<path style="fill:#3B3D1F;" d="M111.05-235.48c-2.25-4.4-4.85-8.61-7.85-12.75c3.12,3.69,5.78,7.77,7.91,12.11
								C111.07-235.97,111.04-235.81,111.05-235.48z"/>
						</g>
						<path style="fill:#3B3D1F;" d="M99.81-175.08c2.47-19.87,4.96-39.78,9.6-59.26c4.64-19.48,11.5-38.59,22.61-56.19
							c-19.6,35.14-26.61,75.88-30.11,115.97C101.05-174.6,100.2-174.64,99.81-175.08z"/>
					</g>
					<g>
						<g>
							<path style="fill:#67693C;" d="M90.63-263.29c-1.4-3.31-1.73-7.06-0.94-10.56c0.8-3.5,2.72-6.74,5.41-9.12
								c0.88,3.59,1.78,7.26,1.43,10.94S94.35-264.6,90.63-263.29z"/>
							<path style="fill:#3B3D1F;" d="M90.27-262.87c1.56-3.81,2.44-7.9,2.74-12.06c0.01,4.39-0.82,8.78-2.43,12.87
								C90.5-262.37,90.43-262.67,90.27-262.87z"/>
						</g>
						<g>
							<path style="fill:#67693C;" d="M88.88-266.84c-0.67-3.39-2.8-6.48-5.73-8.31c-2.93-1.84-6.63-2.41-9.98-1.54
								c0.97,2.79,2.94,5.22,5.47,6.75C81.18-268.4,84.24-267.78,88.88-266.84z"/>
							<path style="fill:#3B3D1F;" d="M77.38-273.7c4.19,2.1,8.17,4.61,11.86,7.49c-0.15-0.37-0.3-0.73-0.52-1.09
								C85.45-269.71,81.9-271.72,77.38-273.7z"/>
						</g>
						<g>
							<path style="fill:#67693C;" d="M94.22-249.56c-1.83-5.98,0.45-12.99,5.44-16.76C101.42-260.59,99.23-253.86,94.22-249.56z"/>
							<path style="fill:#3B3D1F;" d="M94.05-249.12c0.54-3.62,1.56-7.17,3.17-10.77c-1.25,3.65-2.21,7.4-2.86,11.21
								C94.24-249.01,94.11-249.35,94.05-249.12z"/>
						</g>
						<g>
							<path style="fill:#67693C;" d="M92.07-255.28c-0.91-3.19-3.03-6.02-5.85-7.78c-2.81-1.76-6.29-2.43-9.56-1.85
								c0.84,2.84,2.69,5.36,5.14,7.02C84.26-256.23,87.29-255.46,92.07-255.28z"/>
							<path style="fill:#3B3D1F;" d="M92.56-255.34c-3.7-3.25-7.98-5.84-12.55-7.45c4.48,2.21,9.06,4.51,12.42,8.21
								C92.33-254.98,92.36-255.41,92.56-255.34z"/>
						</g>
						<g>
							<path style="fill:#67693C;" d="M95.65-240.05c-0.51-3.13-1.96-6.19-4.44-8.16c-2.48-1.97-6.06-2.68-8.92-1.34
								C84.54-243.78,90.51-239.69,95.65-240.05z"/>
							<path style="fill:#3B3D1F;" d="M96.26-239.81c-2.92-3.37-6.6-6.08-10.76-7.74c3.99,2.45,8.08,4.99,10.84,8.76
								C96.2-239.04,96.22-239.37,96.26-239.81z"/>
						</g>
						<path style="fill:#67693C;" d="M86.47-274.91c1.46-4.11,0.88-9.08-1.22-12.9c-2.1-3.83-4.92-6.72-9.27-8.63
							C77.7-288.93,79.84-279.65,86.47-274.91z"/>
						<path style="fill:#3B3D1F;" d="M104.63-172.21c0.24-39.81-7.8-79.66-23.4-115.69c14.04,36.56,21.2,75.74,21.01,114.89
							C103.18-172.99,104.13-172.96,104.63-172.21z"/>
					</g>
					<g>
						<g>
							<path style="fill:#80804E;" d="M102.64-281.97c-1.82-8.07,1.58-17.07,8.27-21.93c1.45,4.1,1.4,8.72-0.14,12.79
								C109.23-287.04,106.2-283.56,102.64-281.97z"/>
							<path style="fill:#3B3D1F;" d="M101.94-282.2c2.72-4.43,4.91-9.18,6.75-14.22c-1.46,5.3-3.64,10.4-6.46,15.12
								C102.12-281.82,102.01-282.35,101.94-282.2z"/>
						</g>
						<g>
							<path style="fill:#80804E;" d="M101.12-288.66c-0.68-3.61-2.58-6.97-5.31-9.42c-2.73-2.45-6.28-3.97-9.94-4.25
								c0.02,3.67,1.46,7.32,3.96,10.01S95.86-287.92,101.12-288.66z"/>
							<path style="fill:#3B3D1F;" d="M101.19-288.44c-4.94-2.26-9.26-5.87-12.21-10.43c3.11,4.11,7.31,7.38,12.05,9.39
								C101.05-289.16,101.14-288.84,101.19-288.44z"/>
						</g>
						<g>
							<path style="fill:#80804E;" d="M104.19-266.06c-0.52-3.74,0.28-7.65,2.23-10.89c1.95-3.24,5.03-5.77,8.58-7.06
								C115.15-276.87,111.3-269.77,104.19-266.06z"/>
							<path style="fill:#3B3D1F;" d="M103.71-266.86c3.19-3.82,5.91-8.05,8.28-12.44c-2.29,4.66-4.99,9.11-8.08,13.28
								C103.85-266.35,103.79-266.67,103.71-266.86z"/>
						</g>
						<g>
							<path style="fill:#80804E;" d="M103.4-272.52c-0.43-3.93-2.52-7.65-5.65-10.05c-3.13-2.41-7.27-3.46-11.17-2.86
								c0.87,3.45,2.91,6.59,5.7,8.79C95.07-274.44,98.6-273.19,103.4-272.52z"/>
							<path style="fill:#3B3D1F;" d="M103.49-272.5c-4.66-2.82-9.01-6.14-12.9-9.97c3.92,3.11,7.98,6.05,12.16,8.8
								C102.81-273.31,102.88-272.96,103.49-272.5z"/>
						</g>
						<g>
							<path style="fill:#80804E;" d="M105.81-250.2c-1-3.42-0.63-7.23,1.02-10.39s4.55-5.65,7.93-6.79
								c0.66,3.38,0.15,6.98-1.41,10.06C111.79-254.24,109.18-251.71,105.81-250.2z"/>
							<path style="fill:#3B3D1F;" d="M105.04-250.33c3.07-4.02,5.59-8.47,7.71-13.08c-2.04,4.78-4.5,9.38-7.33,13.74
								C105.3-250.06,105.2-250.45,105.04-250.33z"/>
						</g>
						<g>
							<path style="fill:#80804E;" d="M104.44-255.32c0.28-3.85-1.12-7.79-3.77-10.6c-2.65-2.81-6.5-4.44-10.35-4.39
								c0.34,3.49,1.82,6.87,4.17,9.48C96.83-258.22,100.03-256.39,104.44-255.32z"/>
							<path style="fill:#3B3D1F;" d="M104.38-255.18c-4.06-3.45-7.74-7.34-10.8-11.73c3.07,3.82,6.64,7.24,10.6,10.15
								C104.27-256.3,104.37-255.83,104.38-255.18z"/>
						</g>
						<g>
							<path style="fill:#80804E;" d="M105.99-233.89c-0.21-3.55,0.72-7.16,2.62-10.16c1.9-3.01,4.76-5.4,8.05-6.74
								c0.81,3.52,0.23,7.34-1.59,10.46C113.25-237.22,110.21-234.83,105.99-233.89z"/>
							<path style="fill:#3B3D1F;" d="M105.73-234.55c3.59-3.06,6.36-7.08,8.01-11.44c-1.2,4.77-4.02,9.12-7.89,12.16
								C105.86-234.06,105.88-234.28,105.73-234.55z"/>
						</g>
						<g>
							<path style="fill:#80804E;" d="M105.18-240.53c0.19-3.5-1.06-7.06-3.38-9.69c-2.33-2.63-5.71-4.29-9.21-4.53
								c1.16,3.16,2.35,6.37,4.31,9.11C98.85-242.89,101.72-240.62,105.18-240.53z"/>
							<path style="fill:#3B3D1F;" d="M105.23-240.56c-3.88-2.74-7.08-6.44-9.01-10.85c2.04,3.94,5.2,7.29,9.01,9.56
								C105.16-241.51,105.11-241.17,105.23-240.56z"/>
						</g>
						<g>
							<path style="fill:#80804E;" d="M100.12-297.45c1.93-4,2.4-8.68,1.31-12.98c-1.09-4.3-3.74-8.19-7.34-10.78
								c-0.47,4.21-0.94,8.46-0.42,12.66C94.18-304.35,95.77-300.14,100.12-297.45z"/>
							<path style="fill:#3B3D1F;" d="M106.61-172.35c0.88-46.64,1.7-93.85-9.66-140.13c7.57,46.06,10.11,92.95,7.58,139.56
								C105.56-172.87,106.59-172.82,106.61-172.35z"/>
						</g>
					</g>
				</g>
				<g>
					<g>
						<path style="fill:none;stroke:#FFFFFF;stroke-linejoin:round;stroke-miterlimit:10;" d="M111.89-231.4l-1.51,12.08
							c2.54,1.16,7.28,3.81,7.42,5.22c0.24,2.35-3.52,20.38-2.91,26.15c0.6,5.78,1.79,19.49,1.79,19.49
							c-4.43,3.19-23.84,2.61-28.14,0c0,0,1.18-13.71,1.79-19.49c0.6-5.76-3.17-23.8-2.91-26.15c0.15-1.41,4.88-4.07,7.42-5.22
							l-1.51-12.08"/>
						<path style="fill:none;stroke:#FFFFFF;stroke-linecap:round;stroke-linejoin:round;stroke-miterlimit:10;" d="M96.4-231.4
							h-3.31c-1.17,0-2.12-0.95-2.12-2.12l0,0c0-1.17,0.95-2.12,2.12-2.12h19.04c1.17,0,2.12,0.95,2.12,2.12l0,0
							c0,1.17-0.95,2.12-2.12,2.12h-3.43"/>
						<path style="fill:#FFFFFF;" d="M111.75-231.53c0.57-0.59,0.96-1.56,0.69-2.34c-0.27-0.78-1-1.39-1.84-1.43
							c-1.31-0.07-2.61-0.07-3.92,0c1.67,0.65,2.29,2.16,1.45,3.67C109.3-231.63,110.53-231.58,111.75-231.53z"/>
						<path style="fill:#FFFFFF;" d="M104.98-235.25c0.86,0.21,1.59,0.9,1.83,1.75c0.25,0.85,0,1.83-0.62,2.45
							c-0.68,0-1.36,0-2.04,0c0.51-0.36,0.8-1.05,0.63-1.66c-0.4-1.5-1.66-2.36-3.1-2.64C102.52-235.34,104.04-235.47,104.98-235.25
							z"/>
						<path style="fill:#FFFFFF;" d="M114.1-171.06l-1.98-16.1c-0.28-2.29-0.28-4.61,0.05-6.89c1.16-7.96,3.94-17.95,3.42-19.06
							c-0.42-0.89-5.53-3.67-7.93-4.74c-1.08-0.07-2.17-0.14-3.25-0.2c1.62,1.6,3.1,3.35,4.44,5.53c0.27,0.44,0.39,0.96,0.35,1.47
							c-0.46,5.64-1.19,11.27-2.14,17.18c-0.35,2.17-0.36,4.38-0.08,6.55l2.33,18.07C110.84-169.4,112.36-169.55,114.1-171.06z"/>
						<path style="fill:#FFFFFF;" d="M92-175.75l0.86-15.21c0.1-1.75,0.02-3.51-0.22-5.25c-0.64-4.56-1.21-8.84-1.76-13.05
							c-0.35-2.61,0.74-5.22,2.86-6.8c1.58-1.18,2.3-1.42,3.96-2.49c0.77,0.09,1.55,0.21,2.13,0.3c-0.71,0.81-1.53,1.81-2.27,2.66
							c-1.59,1.83-2.38,4.23-2.2,6.65c0.33,4.37,0.68,8.83,1.14,13.63c0.13,1.34,0.16,2.71,0.09,4.06
							c-0.31,5.77-0.61,10.1-1.45,16.23C94.12-175.11,93.09-175.2,92-175.75z"/>
					</g>
					<path style="opacity:0.2392;fill:#FFFFFF;enable-background:new    ;" d="M88.8-168.4c0.39-7.48,1.06-14.95,2.02-22.38
						c-1.43-6.38-2.36-12.77-3.29-19.16c-0.24-1.66-0.37-3.65,0.91-4.73c1.61-1.87,4.11-3.36,6.76-4.53
						c-1.16-3.99-1.72-7.85-1.78-11.73c-1.41-0.28-2.26-1.04-2.44-1.97c-0.18-0.93,0.34-1.95,1.2-2.36
						c6.84-0.78,13.58-0.88,20.51-0.35c1.11,0.38,1.84,1.63,1.64,2.79c-0.2,1.15-1.32,2.08-2.37,2.45
						c-0.98,3.48-1.38,7.11-1.24,11.09c2.68,0.98,5.14,2.55,7.3,4.76c-1.1,7.62-2.2,15.24-3.21,22.97
						c0.62,7.46,1.23,14.93,2.07,23.32C108.08-165.12,98.22-165.17,88.8-168.4z"/>
				</g>
			</g>
			<g>
				<path style="fill:#DCECF7;" d="M197.62-168.06l-8.9,1.21l-42.83,5.81l-45.48-3.65c0,0-5.01-2.65-3.13-7.49
					c1.87-4.84,2.63-3.7,5.04-3.94c2.41-0.24,84.31-1.9,84.31-1.9l9.58,0.98l1.56,0.16C197.76-176.87,195.66-171.7,197.62-168.06z"
					/>
				<path style="fill:#FFFFFF;" d="M197.62-168.06l-8.9,1.21l-43.41,5.63c-5.07-5.38-0.53-12.67-0.53-12.67l51.42-3.13l1.56,0.16
					C197.76-176.87,195.66-171.7,197.62-168.06z"/>
				<path style="fill:#B3CCE3;" d="M99.93-175.17c1.29,3.06,1.1,6.71-0.5,9.61c-1.18-1.36-2.11-3.01-2.25-4.8
					S97.84-174.08,99.93-175.17z"/>
				<path style="fill:#FFAA00;" d="M97.89-169.97c-0.06,2.24,1.06,3.56,3.16,4.35c14.72,1.31,29.43,2.63,44.15,3.7
					c18.02-2.06,35.44-4.34,52.86-6.64c0.02,0.45,0.04,0.91,0.07,1.38c-17.46,2.31-34.84,4.63-52.23,6.96
					c-15.77-1.23-45.89-3.51-45.89-3.51s-3.77-1.28-3.92-6.45c-0.16-5.59,5.41-6.61,5.41-6.61l1.7-0.18l55.72-5.78l38.59,4.72
					l0.63,0.08l-0.06,1.65l-53.05,3.75l-43.47-2.73C99.29-174.37,97.94-172.21,97.89-169.97z"/>
				<g>
					<path style="fill:none;stroke:#B3CCE3;stroke-linecap:round;stroke-linejoin:round;stroke-miterlimit:10;" d="M100.04-172.68
						c8.96,0.51,17.93,1.02,26.89,1.53"/>
					<path style="fill:none;stroke:#B3CCE3;stroke-linecap:round;stroke-linejoin:round;stroke-miterlimit:10;" d="M100-170.48
						c5.06,0.33,10.13,0.67,15.19,1"/>
					<path style="fill:none;stroke:#B3CCE3;stroke-linecap:round;stroke-linejoin:round;stroke-miterlimit:10;" d="M99.84-168.25
						c8.38,0.69,16.76,1.37,25.14,2.06"/>
				</g>
				<polygon style="fill:#FFBE26;" points="197.51,-178.03 145.65,-174.44 103.2,-176.97 158.92,-182.75 				"/>
			</g>
		</g>
	</g>
	<g>
		<ellipse style="fill:#B6D4D3;" cx="334.22" cy="-46.69" rx="140.89" ry="16.5"/>
		<g>
			<g>
				<g>
					<path style="fill:#835440;" d="M249.82-110.45c0,0-1.09,4.77-2.72,11.84c-4.61,19.91-13.54,58-14.66,58.51
						c-1.51,0.69-17.79-0.16-18.57-1.8c-0.68-1.44,4.66-39.47,7.95-62.32c1.42-9.88,2.46-16.93,2.46-16.93L249.82-110.45z"/>
					<path style="fill:#543332;" d="M224.29-121.16l25.54,10.7c0,0-1.09,4.77-2.72,11.84c-8.53-1.39-16.97-3.23-25.27-5.61
						C223.25-114.11,224.29-121.16,224.29-121.16z"/>
				</g>
				<g>
					<path style="fill:#835440;" d="M392.53-41.91c-0.81,1.5-17.61,2.49-19.11,1.8c-1.14-0.52-10.34-39.84-14.88-59.47
						c-1.51-6.53-2.5-10.88-2.5-10.88l26.59-1.05c0,0,0.28,1.8,0.78,4.82C385.86-91.16,393.35-43.39,392.53-41.91z"/>
					<path style="fill:#543332;" d="M383.41-106.68c-7.97,3.25-16.33,5.52-24.87,7.11c-1.51-6.53-2.5-10.88-2.5-10.88l26.59-1.05
						C382.64-111.5,382.92-109.7,383.41-106.68z"/>
				</g>
			</g>
			<g>
				<g>
					<path style="fill:#835440;" d="M327.72-122.47c0,0-4.29,18.83-8.63,37.01c-3.99,16.78-8.03,33-8.75,33.33
						c-1.51,0.69-17.79-0.16-18.57-1.8c-0.41-0.88,1.44-15.57,3.69-32.07c2.14-15.69,4.65-33.02,5.91-41.66
						c0.5-3.46,0.81-5.53,0.81-5.53l10.07,4.22L327.72-122.47z"/>
					<path style="fill:#543332;" d="M327.72-122.47c0,0-4.29,18.83-8.63,37.01c-7.89,0.26-15.78,0.14-23.62-0.54
						c2.14-15.69,4.65-33.02,5.91-41.66c3.63-0.28,7.26-0.75,10.88-1.31L327.72-122.47z"/>
				</g>
				<g>
					<path style="fill:#835440;" d="M448.49-53.92c-0.81,1.5-17.61,2.49-19.11,1.8c-1.02-0.47-8.62-32.53-13.42-53.2
						c-2.29-9.87-3.95-17.15-3.95-17.15l23.98-13.84c0,0,1.17,7.01,2.8,16.95C442.67-95.61,449.17-55.18,448.49-53.92z"/>
					<path style="fill:#543332;" d="M438.78-119.35c-7.02,5.52-14.73,10.17-22.83,14.03c-2.29-9.87-3.95-17.15-3.95-17.15
						l23.98-13.84C435.99-136.3,437.16-129.29,438.78-119.35z"/>
				</g>
			</g>
			<path style="fill:#A1BDE2;" d="M378.3-306.16c22.78,0.96,76.94-1.47,89.52,17.35c12.17,18.21,6.11,43.64,3.07,65.55
				c-3.04,21.91-18.2,80.53-39.57,95.55c-20.18,14.18-51.55,21.22-81.29,23.15c-21.2,1.37-102.48,1.78-120.32-9.96
				c-16.74-11.02-28.52-33.91-37.47-58.74c-7.08-19.66-12.49-44.5-6.68-55.66c4.64-8.89,22.07-13.76,42.53-16.15
				c23.56-2.75,59.65-10.05,63.03-24.63C301.43-314.14,354.69-307.16,378.3-306.16z"/>
			<g>
				<path style="fill:#FEB298;" d="M402.02-277.16c0.67,9.27,8.3,23.27,16.52,20.89c-0.08-0.92-0.26-3.01-0.4-3.73
					c-1.39-7.3-8.24-42.78-8.24-42.78l-9,19.43C401.06-281.25,401.87-279.26,402.02-277.16z"/>
				<path style="fill:#7B8E9C;" d="M310.27-236.15c0,0-7.16,4.81-8.18,5.07s-64.7-12.44-75.5-9.75
					c-13.07,3.26-25.82,17.64-17.52,34.13c8.3,16.49,36.44,19.7,49.31,23.64c12.86,3.94,40.74,4.74,54.39,5.31
					c16.42,0.69,54.35,2.8,65.32-7.26c10.96-10.06,14.83-31.28,11.41-46.08L310.27-236.15z"/>
				<g>
					<polygon style="fill:#F58F7A;" points="326.74,-285.9 311.82,-283.34 315.08,-252.07 327.59,-250.37 					"/>
					<path style="fill:#FEB298;" d="M297.72-264.2c0,0,1.63,7.11,1.53,9.59s-1.32,5.39-0.56,8.87c0.42,1.92,11.42,9.6,15.64,8.62
						c6.41-1.49,10.04-7.04,10.04-11.2c0-4.16-7.71-15.78-7.71-15.78L297.72-264.2z"/>
				</g>
				<g>
					<path style="fill:#FFAA00;" d="M365.97-342.69c0,0,31.66,4.89,38.53,14.36c3.93,5.41,15.29,37.84,15.29,37.84l-25.92,12.05
						c0,0-6.58,24.29-5.88,30.46c0.7,6.16,3.18,20.72,3.18,20.72s-11.54-2.31-20.12-1.82c-10.92,0.63-26.58,4.7-37.04,5.31
						c-10.46,0.61-29.36-9.54-29.36-9.54s15.96-17.75,18.32-23.09c0,0-1.48-4.4,0-9.43c0,0-7.64-16.95-6.92-24.37
						c0.72-7.43,3.12-34.75,6.31-37.93C325.55-331.33,359.17-342.69,365.97-342.69z"/>
					<g>
						<path style="fill:none;stroke:#E88605;stroke-linecap:round;stroke-linejoin:round;stroke-miterlimit:10;" d="M329.55-331.09
							c0.59,10.31,8.04,19.89,18.54,22.75c13.99-5.1,25.37-16.89,29.99-31.05"/>
						<path style="fill:none;stroke:#E88605;stroke-linecap:round;stroke-linejoin:round;stroke-miterlimit:10;" d="M392.43-328.23
							c-7.3,13.46-9.25,29.73-5.33,44.53"/>
						<path style="fill:none;stroke:#E88605;stroke-linecap:round;stroke-linejoin:round;stroke-miterlimit:10;" d="M331.26-265.18
							c11.95,0.09,23.91-2.72,34.57-8.14"/>
						<path style="fill:none;stroke:#E88605;stroke-linecap:round;stroke-linejoin:round;stroke-miterlimit:10;" d="M372.69-257
							c-12.14,2.29-24.64,2.67-36.9,1.12"/>
					</g>
				</g>
				<g>
					<polygon style="fill:#FEB298;" points="313.98,-271.65 318.17,-281.68 310.47,-281.78 305.33,-274.34 					"/>
					<g>
						<g>
							<polyline style="fill:#C5DEE3;" points="320.39,-330.44 320.81,-330.78 323.48,-332.98 328.11,-319.75 324.58,-320.29 
															"/>
							<path style="fill:#FFFFFF;" d="M277.33-318.08l1.26-5.14c0,0,19.92-13.85,44.78-9.84l-1.55,7.63L277.33-318.08z"/>
							<path style="fill:#E4F0F5;" d="M279.1-319.78l-0.2-3.61c0,0-12.32-11.04-28.42-11.04l3.49,8.07L279.1-319.78z"/>
							<path style="fill:#FFFFFF;" d="M280.15-321.31l-1.42-2.1c0,0-13.14-10.51-30.55-7.38l-3.35,5.51l32.94,8.92L280.15-321.31z"
								/>
						</g>
						<g>
							<polygon style="fill:#BAE3DE;" points="246.98,-323.03 243.72,-325.55 244.36,-326.69 277.26,-318.83 325.74,-328.84 
								339.73,-285.8 339.42,-283.85 							"/>
							<polygon style="fill:#9FD2CD;" points="276.75,-309.59 276.92,-317.69 325.1,-327.57 339.42,-283.85 298.24,-274.24 							
								"/>
							<polygon style="fill:#8FC9C8;" points="298.24,-274.24 276.92,-317.69 243.72,-325.55 267.45,-280.8 							"/>
						</g>
						<g>
							<polygon style="fill:none;stroke:#D1EDEA;stroke-linecap:round;stroke-linejoin:round;stroke-miterlimit:10;" points="
								248.84,-321.53 278.86,-314.24 322.45,-322.75 334.51,-285.94 297.45,-277.9 268.71,-283.85 							"/>
							<polygon style="fill:#D1EDEA;" points="290.33,-311.47 316.88,-317.26 321.57,-306.35 295.28,-300.91 							"/>
						</g>
					</g>
					<g>
						<path style="fill:#FEB298;" d="M312.1-259.66c-3.02,1.01-11.57-0.94-18.15-3.71c-6.59-2.78-11.99-8.37-12.81-11.05
							c-0.82-2.68-5.35-17.36-3.45-18.82c1.9-1.46,4.05-0.08,5.59,3.29c1.54,3.37,4.49,13.37,6.24,15.36c0,0,1-6.24,2.71-10.63
							c1.71-4.4,7.36-14.36,10.19-13.42c2.83,0.95,0.37,8.25-1.48,12.57s-2.27,11-1.81,12.99c0,0,9.54-22.12,13.55-21.26
							c3.5,0.75-0.49,11.39-4.97,21.01c0,0,6.66-3.7,7.97-1.59C316.98-272.81,322.18-263.03,312.1-259.66z"/>
						<path style="fill:none;stroke:#D6625A;stroke-linecap:round;stroke-linejoin:round;stroke-miterlimit:10;" d="M309.12-276.46
							c-0.67,1.81-1.33,3.62-2,5.44"/>
						<path style="fill:none;stroke:#D6625A;stroke-linecap:round;stroke-linejoin:round;stroke-miterlimit:10;" d="M298.77-261.65
							c2.14,0.8,4.36,1.38,6.63,1.71"/>
					</g>
				</g>
				<g>
					<g>
						<path style="fill:#FEB298;" d="M373.86-341.07c-4.03,12.54-13.76,23.13-25.92,28.2c-7.79-3.37-13.39-10.88-14.74-18.98
							c1.45-0.81,3.09-1.83,4.62-2.68c-0.01-0.03-0.02-0.05-0.03-0.08c-0.6-1.56-1.66-3.58-2.71-5.6
							c4.33-3.68,8.52-7.31,12.55-10.99c0.01-0.01,0.02-0.02,0.03-0.02c4.65-4.21,9.11-8.47,13.36-12.93c1.45,7.11,4,14,7.57,20.34
							C369.98-342.64,371.85-341.62,373.86-341.07z"/>
						<path style="fill:#543332;" d="M360.89-363.34c-1.01,19.31-16.47,30.85-23.1,28.73c-0.6-1.56-1.66-3.58-2.71-5.6
							c4.33-3.68,8.52-7.31,12.55-10.99c0.01-0.01,0.02-0.02,0.03-0.02C352.35-354.96,356.83-358.93,360.89-363.34z"/>
					</g>
					<g>
						<path style="fill:#FEB298;" d="M365.94-373.25c4.74-8.3,6.56-18.22,4.74-27.56s-7.33-18-15.28-23.47
							c-7.95-5.47-18.28-7.6-27.75-5.43c-12.41,2.83-22.48,12.91-26.34,24.8c-3.86,11.88-1.28,25.32,4.16,35.76
							c-0.2,7.65,1.36,16.4,6.26,22.36c3.73,4.54,8.74,8.04,14.55,10.39c3.3,1.33,7.04,1.16,10.15-0.55
							c6.48-3.56,12.83-7.38,18.18-12.39C361.2-355.5,366.22-363.78,365.94-373.25z"/>
						<path style="fill:#512E2F;" d="M294.37-390.16c0.49,11.11,4.72,22.03,11.83,30.58c-0.55-3.39-0.7-6.34-0.7-9.84
							c-3.23-6.24-5.05-12.15-4.36-18.29c7.35-1.84,13.53-6.48,18.57-12.09c-0.45,4.03-1.71,7.14-4,9.8
							c8.64-0.87,18.5-6.63,19.68-16.18c5.94,13.62,16.2,23.58,30.59,30.7c0.24,7.34-0.24,9.68-3.88,15.84
							c0.75,3.65,1.99,6.98,3.76,10.44c2.53-2.1,4.44-5.36,5.72-8.41c-0.48,3.05-1.16,5.18-2.66,7.18
							c8.41-4.9,13.6-14.87,12.78-24.57c-0.45-5.34-2.53-10.39-3.63-15.64c-1.31-6.26-1.2-12.78-2.94-18.93
							c-2.19-7.77-7.38-14.66-14.25-18.91s-15.35-5.81-23.92-3.01c-5.78-5.01-14.77-4.67-21.58-1.19
							c-6.81,3.49-11.9,9.52-16.69,15.48c-3.59,4.47-7.18,9.12-8.89,14.59c-1.71,5.47-1.45,13.91,2.5,18.06
							C292.07-386.41,293.26-390.28,294.37-390.16z"/>
						<path style="fill:#FEB298;" d="M361.01-378.16c11.42-23.49,23.2,15.75,3.25,12.7"/>
						<g>
							<path style="fill:#512E2F;" d="M335.38-378.15c2.03-2.97,5.94-4.63,9.59-4.07s6.83,3.31,7.8,6.73
								C348.26-379.04,341.56-379.78,335.38-378.15z"/>
							<path style="fill:#293954;" d="M337.29-366.588c0.2-1.572,1.455-2.708,2.803-2.536c1.348,0.172,2.278,1.585,2.078,3.158
								c-0.2,1.572-1.455,2.708-2.803,2.536C338.02-363.602,337.089-365.016,337.29-366.588z"/>
							<path style="fill:#293954;" d="M315.125-369.07c1.331-0.272,2.668,0.766,2.986,2.318c0.318,1.553-0.504,3.033-1.835,3.305
								s-2.668-0.766-2.986-2.319C312.973-367.318,313.794-368.798,315.125-369.07z"/>
							<path style="fill:#ED6F68;" d="M322.51-359.45c0.78,1.71,1.99,3.22,3.49,4.36c-1.12,0.48-2.52,0.2-3.37-0.67
								C321.77-356.63,321.53-358.04,322.51-359.45z"/>
							<path style="fill:#512E2F;" d="M319.3-377.03c-1.33-1.68-2.91-3.22-4.84-4.15c-1.93-0.93-4.26-1.18-6.23-0.34
								s-3.46,2.91-3.29,5.05C308.91-379.03,314.32-379.18,319.3-377.03z"/>
							<path style="fill:none;stroke:#AD3E4B;stroke-linecap:round;stroke-linejoin:round;stroke-miterlimit:10;" d="M324.36-349.63
								c4.09,1.7,9.14,0.74,12.32-2.34"/>
						</g>
					</g>
				</g>
				<g>
					<g>
						<path style="fill:#FFFFFF;" d="M378.91-297.66c0,0,11.33-2.1,14.06-0.19c5.65,3.95,0.12,27.68-3.2,29.61
							c-5.54,3.21-13.15,1.01-13.15,1.01l0.04-4.43c0,0,7.62,1.86,10.14-0.66c1.14-1.14,5.7-17.02,2.28-21.42
							c-0.87-1.12-9.66,0.99-9.66,0.99L378.91-297.66z"/>
						<path style="fill:#FFFFFF;" d="M381.65-299.55c0,0-21.87-3.06-34.56,0.82c0,0,3.15,31.83,6.5,33.88c0,0,12.44,1.75,24.16-0.07
							C377.75-264.92,382.02-295.01,381.65-299.55z"/>
					</g>
					<g>
						<path style="fill:#FEB298;" d="M391.55-297.5c-1.04-0.32-2.15-0.27-3.22-0.45c-1.07-0.19-2.2-0.72-2.63-1.76
							c-0.17-0.42-0.21-0.86-0.16-1.31c0.07-0.78,0.73-1.35,1.48-1.35c2.63,0.02,5.25-0.31,7.79-0.98c1.1-0.29,2.25,0.09,3.05,0.92
							c2.34,2.44,4.43,5.17,6.23,8.27C399.96-295.75,395.53-296.25,391.55-297.5z"/>
						<path style="fill:#FEB298;" d="M404.87-265.93c2.24-5.5,4.03-11.18,5.54-16.9c0.75-2.84,0.04-5.86-1.85-8.1
							c-2.87-3.4-6.53-6.17-10.64-8.08c-1.57-0.73-3.38-0.89-5.03-0.35c-2.02,0.67-3.85,1.94-5.14,3.64
							c-0.87,1.14-1.5,2.74-0.38,4.35c-1.43,0.48-2.57,1.73-2.93,3.2c-0.35,1.47,0.09,3.1,1.19,4.58c-1.69,2.03-1.79,5.21-0.3,7.23
							c-1.07,1.29-1.35,3.19-0.7,4.74c0.65,1.55,2.2,2.67,4.15,2.94c0.32,4.24,2.7,8.28,6.27,10.61c0.8,0.52,1.75,0.98,2.68,0.76
							c0.82-0.19,1.43-0.85,1.98-1.49C401.64-261.06,403.78-263.25,404.87-265.93z"/>
						<path style="fill:none;stroke:#D6625A;stroke-linecap:round;stroke-linejoin:round;stroke-miterlimit:10;" d="M387.79-291.17
							c5.03-1.15,10.53-0.09,14.78,2.85"/>
						<path style="fill:none;stroke:#D6625A;stroke-linecap:round;stroke-linejoin:round;stroke-miterlimit:10;" d="M386.13-283.68
							c4.56-0.46,9.25,0.38,13.37,2.38"/>
						<path style="fill:none;stroke:#D6625A;stroke-linecap:round;stroke-linejoin:round;stroke-miterlimit:10;" d="M386.07-275.98
							c3.53-0.48,7.18-0.02,10.49,1.31"/>
						<path style="fill:none;stroke:#D6625A;stroke-linecap:round;stroke-linejoin:round;stroke-miterlimit:10;" d="M401.81-296.45
							c-1.01-0.99-2.18-1.82-3.49-2.48c-2.08-1.04-4.53-1-6.59,0.07c-0.45,0.24-0.9,0.5-1.33,0.77"/>
					</g>
					<g>
						<path style="fill:#FEB298;" d="M413.94-257.71c-7.56-5.18-12.69-14.65-13.93-23.71l-8.17,17.63c0,0-0.97,17.98,0.49,22.94
							c2.31,7.83,14.06,10.96,18.37,9.35c6.13-2.29,8.24-16.24,7.84-24.77C416.69-256.13,415.35-256.75,413.94-257.71z"/>
						<g>
							<path style="fill:none;stroke:#D6625A;stroke-linecap:round;stroke-linejoin:round;stroke-miterlimit:10;" d="M411.22-286.11
								c-2.38,6.92-4.75,13.84-7.13,20.77"/>
							<path style="fill:none;stroke:#D6625A;stroke-linecap:round;stroke-linejoin:round;stroke-miterlimit:10;" d="M405.41-268.83
								c1.72,5.39,5.75,10.01,10.87,12.43"/>
							<path style="fill:none;stroke:#D6625A;stroke-linecap:round;stroke-linejoin:round;stroke-miterlimit:10;" d="M392.31-260.53
								c1.64,1.47,3.78,2.38,5.97,2.53"/>
						</g>
					</g>
				</g>
				<g>
					<path style="fill:#FFFFFF;" d="M257.27-187.5c-6.1,1.63-12.58,0.23-18.65-1.52c-6.07-1.75-12.19-3.86-18.51-3.66
						c-2.72,0.09-5.58,0.68-7.59,2.51c-2.41,2.19-3.14,5.69-3.14,8.94c0,5.12,1.71,10.53,5.77,13.64c3.55,2.72,8.29,3.28,12.76,3.3
						c11.12,0.07,22.24-2.57,32.14-7.62C258.97-176.9,257.88-181.9,257.27-187.5z"/>
					<path style="fill:#FFFFFF;" d="M347.57-190.43c4.91-0.14,9.81-0.27,14.72-0.41c1.3-0.04,2.69-0.05,3.79,0.64
						c1.75,1.09,2.11,3.48,1.99,5.54c-0.33,5.86-3.42,11.79-8.68,14.4c-4.01,1.99-8.71,1.88-13.16,1.4
						c-10.61-1.13-21.01-4.11-30.61-8.76C325.47-181.59,334.4-190.06,347.57-190.43z"/>
					<path style="fill:#7B8E9C;" d="M253.17-186.86c0.78,5.03,2.89,11.3,5.95,15.88c33.91,0.86,72.31-6.2,101.2-19.86
						c-10.32-3.71-22.52-5.97-33.2-8.43c-10.68-2.46-21.77-3.64-32.63-2.22C279.69-199.56,267.07-192.51,253.17-186.86z"/>
					<path style="fill:#7B8E9C;" d="M382.25-221.74c-6.81-4.54-15.07-9.61-22.85-10.38c-1.78-0.17-3.57,0-5.29,0.46
						c-7.35,2-14.39,5.16-20.75,9.35"/>
					<g>
						<path style="fill:none;stroke:#4C5B70;stroke-linecap:round;stroke-linejoin:round;stroke-miterlimit:10;" d="M332.58-221.74
							c-26.47,11.62-52.94,23.25-79.41,34.87"/>
						<path style="fill:none;stroke:#4C5B70;stroke-linecap:round;stroke-linejoin:round;stroke-miterlimit:10;" d="M370.37-204.04
							c-1.52,5.67-5.43,10.67-10.58,13.51"/>
						<path style="fill:none;stroke:#4C5B70;stroke-linecap:round;stroke-linejoin:round;stroke-miterlimit:10;" d="M366.89-190.54
							c3.27-1.1,6.54-3.99,6.98-5.39"/>
						<path style="fill:none;stroke:#4C5B70;stroke-linecap:round;stroke-linejoin:round;stroke-miterlimit:10;" d="M235.69-235.2
							c19.94,9.81,39.89,19.61,59.83,29.42"/>
						<path style="fill:none;stroke:#4C5B70;stroke-linecap:round;stroke-linejoin:round;stroke-miterlimit:10;" d="M304.64-227.99
							c4.61,5.25,11.46,9.23,18.33,10.53"/>
						<path style="fill:none;stroke:#4C5B70;stroke-linecap:round;stroke-linejoin:round;stroke-miterlimit:10;" d="M371.29-228
							c4.58,1.66,8.71,4.55,11.86,8.27"/>
					</g>
				</g>
			</g>
			<g>
				<path style="fill:none;stroke:#7F98C9;stroke-linecap:round;stroke-linejoin:round;stroke-miterlimit:10;" d="M223.28-164.1
					c0.33,6.73,1.84,14.95,9.07,17.65c25.51,9.53,126.53,9.9,132.48-3.53"/>
				<path style="fill:#A1BDE2;" d="M406.52-218.49c-9.35-0.64-18.91,3.36-25.01,10.48c-5.72,6.68-8.25,15.49-9.86,24.13
					c-1.61,8.64-2.49,17.51-5.58,25.74"/>
				<path style="fill:none;stroke:#7F98C9;stroke-linecap:round;stroke-linejoin:round;stroke-miterlimit:10;" d="M391.34-215.5
					c9.17-1.31,18.38-3.71,26.11-8.81c7.73-5.1,13.83-13.25,14.77-22.46"/>
				<path style="fill:none;stroke:#7F98C9;stroke-linecap:round;stroke-linejoin:round;stroke-miterlimit:10;" d="M371.08-180.62
					c-1.29,8.48-2.24,14.51-3.63,21.46c-1.39,6.96-3.83,13.98-8.82,19.02c-6.42,6.49-15.89,8.65-24.81,10.53"/>
			</g>
			<path style="fill:none;stroke:#7F98C9;stroke-linecap:round;stroke-linejoin:round;stroke-miterlimit:10;" d="M468.19-287.4
				c0,0,0.66,19.37-5.48,36.72c-5.05,14.24-11.07,24.88-27.88,32.57c-10.34,4.73-24.01,4.79-29.67,11.45
				c-15.24,17.93-8.17,65.04-40.08,83.93c-20.31,12.02-117.39,9.55-134.17-0.83c-24.67-15.26-47.63-80.03-43.84-104.81"/>
		</g>
	</g>
</g>
</svg>
